<?xml version="1.0" encoding="utf-8"?>
<!-- Generator: Adobe Illustrator 25.0.0, SVG Export Plug-In . SVG Version: 6.00 Build 0)  -->
<svg version="1.1" id="图层_1" xmlns="http://www.w3.org/2000/svg" xmlns:xlink="http://www.w3.org/1999/xlink" x="0px" y="0px"
	 viewBox="0 0 200 200" style="enable-background:new 0 0 200 200;" xml:space="preserve">
<style type="text/css">
	.st0{fill:#F8B500;}
	.st1{fill:#15ae2f;}
</style>
<path class="st0" d="M195,120.5H5c-2.8,0-5-2.2-5-5c0-2.8,2.3-5,5-5h190c2.8,0,5,2.2,5,5C200,118.3,197.8,120.5,195,120.5z"/>
<path class="st1" d="M180,155H20c-11,0-20-9-20-20V27.5c0-11,9-20,20-20h160c11,0,20,9,20,20V135C200,146,191,155,180,155L180,155z
	 M20,17.5c-5.5,0-10,4.5-10,10V135c0,5.5,4.5,10,10,10h160c5.5,0,10-4.5,10-10V27.5c0-5.5-4.5-10-10-10C180,17.5,20,17.5,20,17.5z
	 M159.4,192.5H40.6c-2.8,0-5-2.2-5-5c0-2.8,2.3-5,5-5h118.8c2.8,0,5,2.3,5,5C164.4,190.3,162.1,192.5,159.4,192.5z"/>
<path class="st1" d="M118.8,192.5c-2.8,0-5-2.2-5-5V150c0-2.8,2.2-5,5-5s5,2.2,5,5v37.5C123.8,190.3,121.5,192.5,118.8,192.5z"/>
<path class="st1" d="M81.3,192.5c-2.7,0-5-2.2-5-5V150c0-2.8,2.3-5,5-5c2.8,0,5,2.2,5,5v37.5C86.3,190.3,84,192.5,81.3,192.5z"/>
</svg>
