<?xml version="1.0" encoding="utf-8"?>
<!-- Generator: Adobe Illustrator 25.0.0, SVG Export Plug-In . SVG Version: 6.00 Build 0)  -->
<svg version="1.1" id="图层_1" xmlns="http://www.w3.org/2000/svg" xmlns:xlink="http://www.w3.org/1999/xlink" x="0px" y="0px"
	 viewBox="0 0 200 200" style="enable-background:new 0 0 200 200;" xml:space="preserve">
<style type="text/css">
	.st0{fill:#F8B500;}
	.st1{fill:#15ae2f;}
</style>
<g>
	<path class="st0" d="M148.1,80.4c-8.3,0-15.1-6.8-15.1-15.1s6.8-15.1,15.1-15.1c8.3,0,15.1,6.8,15.1,15.1S156.4,80.4,148.1,80.4z
		 M148.1,57.1c-4.6,0-8.3,3.7-8.3,8.3s3.7,8.3,8.3,8.3c4.6,0,8.3-3.7,8.3-8.3S152.7,57.1,148.1,57.1z"/>
	<path class="st1" d="M176.9,177.8C174.9,180.5,179.6,175.8,176.9,177.8L176.9,177.8z"/>
	<path class="st1" d="M28.6,29.5c-0.2,0.2-0.3,0.3-0.4,0.4C28.4,29.8,28.5,29.6,28.6,29.5z"/>
	<path class="st1" d="M28.6,29.5c-0.1,0.1-0.2,0.3-0.4,0.4C27.1,31.1,29.8,28.9,28.6,29.5z"/>
	<path class="st1" d="M169.6,22.2C170.3,20.9,168.3,22.9,169.6,22.2L169.6,22.2z"/>
	<path class="st1" d="M18,167.2C14.7,171.2,22,163.8,18,167.2L18,167.2z"/>
	<path class="st1" d="M80,0H37C24.5,0,14.3,10.2,14.3,22.7v154.6c0,12.5,10.2,22.7,22.7,22.7H80c12.5,0,22.7-10.2,22.7-22.7V22.7
		C102.6,10.2,92.5,0,80,0z M93.1,177.3c0,7.2-5.9,13.1-13.1,13.1H37c-7.3,0-13.1-5.9-13.1-13.1V22.7c0-7.3,5.9-13.1,13.1-13.1H80
		c7.2,0,13.1,5.9,13.1,13.1V177.3z"/>
	<rect x="19.6" y="95.2" class="st1" width="4.3" height="9.5"/>
	<rect x="19.6" y="66.8" class="st1" width="4.3" height="9.5"/>
	<rect x="19.6" y="153.3" class="st1" width="4.3" height="9.5"/>
	<rect x="19.6" y="37.8" class="st1" width="4.3" height="9.5"/>
	<rect x="19.6" y="124" class="st1" width="4.3" height="9.5"/>
	<rect x="125.4" y="184.6" class="st1" width="45.4" height="9.5"/>
	<path class="st1" d="M154.9,8c-3.5-3.8-10.1-3.7-13.6,0l-30.8,32.7v122.7c0,10.2,8.3,18.5,18.5,18.5h38.1
		c10.2,0,18.5-8.3,18.5-18.5V40.7L154.9,8z M176.1,163.4c0,5-4,9-9,9H129c-5,0-9-4-9-9V44.5L148,14.6l28.2,29.9V163.4z"/>
	<rect x="23.9" y="153.3" class="st1" width="41.2" height="9.5"/>
	<rect x="23.9" y="124" class="st1" width="27.8" height="9.5"/>
	<rect x="23.9" y="66.8" class="st1" width="28" height="9.5"/>
	<rect x="23.9" y="95.2" class="st1" width="41.2" height="9.5"/>
	<rect x="23.9" y="37.8" class="st1" width="41.2" height="9.5"/>
</g>
</svg>
