<?xml version="1.0" encoding="utf-8"?>
<!-- Generator: Adobe Illustrator 25.0.0, SVG Export Plug-In . SVG Version: 6.00 Build 0)  -->
<svg version="1.1" id="图层_1" xmlns="http://www.w3.org/2000/svg" xmlns:xlink="http://www.w3.org/1999/xlink" x="0px" y="0px"
	 viewBox="0 0 200 200" style="enable-background:new 0 0 200 200;" xml:space="preserve">
<style type="text/css">
	.st0{fill:#2AC006;}
	.st1{fill:#FDD400;}
	.st2{fill:#FF660C;}
	.st3{fill:#15ae2f;}
</style>
<g>
	<path class="st0" d="M178,126c-5-5.3-8.7-12-10.3-19.7c-0.7-5.3-5.3-9.7-11-9.7c-6,0-11,5-11,11c0,5.3,3.7,10,9,11
		c7.7,1.3,15,5.3,20.3,10.7c0.3,0.3,1,0.7,1.7,0.7c1.3,0,2.3-1,2.3-2.3C178.7,127,178.7,126.3,178,126z"/>
	<path class="st1" d="M142.7,118.7c-5.3,5-12,8.7-19.7,10.3c-5.3,0.7-9.7,5.3-9.7,11c0,6,5,11,11,11c5.3,0,10-3.7,11-9
		c1.3-7.7,5.3-15,10.7-20.3c0.3-0.3,0.7-1,0.7-1.7c0-1.3-1-2.3-2.3-2.3C143.7,118,143,118.3,142.7,118.7z"/>
	<path class="st2" d="M135.3,154c5,5.3,8.7,12,10.3,19.7c0.7,5.3,5.3,9.7,11,9.7c6,0,11-5,11-11c0-5.3-3.7-10-9-11
		c-7.7-1.3-15-5.3-20.3-10.7c-0.3-0.3-1-0.7-1.7-0.7c-1.3,0-2.3,1-2.3,2.3C134.7,153,135,153.7,135.3,154z"/>
	<path class="st3" d="M170.7,161.7c5.3-5,12-8.7,19.7-10.3c5.3-0.7,9.7-5.3,9.7-11c0-6-5-11-11-11c-5.3,0-10,3.7-11,9
		c-1.3,7.7-5.3,15-10.7,20.3c-0.3,0.3-0.7,1-0.7,1.7c0,1.3,1,2.3,2.3,2.3C169.7,162.3,170.3,162,170.7,161.7z"/>
	<path class="st3" d="M34,165.3c-2,0-4-0.7-5.7-1.7c-3.3-2.3-5-6.3-4.7-11.3V152l1.7-13.7C9,125.3,0,106.7,0,87.3
		c0-39,36.7-70.7,82-70.7s82,31.7,82,71h-11.3C152.7,54.7,121,28,82,28S11.3,54.7,11.3,87.7c0,16.7,8.3,33,23.3,44.3
		c1.7,1.3,2.3,3,2,5l-2,16.7v1c0,0,0.3,0,0.7-0.3l19.3-9.7c1.3-0.7,2.7-0.7,4-0.3c7.3,2,15.3,3.3,23,3.3c8,0,15.7-1,23-3.3l3,10.7
		c-8.3,2.3-17.3,3.7-26,3.7c-8.3,0-16.3-1-24-3L40,164.3C38.3,165,36,165.3,34,165.3z"/>
</g>
</svg>
