<?xml version="1.0" encoding="utf-8"?>
<!-- Generator: Adobe Illustrator 24.3.0, SVG Export Plug-In . SVG Version: 6.00 Build 0)  -->
<svg version="1.1" id="图层_1" xmlns="http://www.w3.org/2000/svg" xmlns:xlink="http://www.w3.org/1999/xlink" x="0px" y="0px"
	 viewBox="0 0 200 200" style="enable-background:new 0 0 200 200;" xml:space="preserve">
<style type="text/css">
	.st0{fill:#15AE2F;}
	.st1{fill:#F8B500;}
</style>
<path class="st0" d="M64.8,197c-14.4,0-24.6-3-30.5-8.9c0,0-0.1-0.1-0.1-0.1c-3.1-2.9-5-6.7-5.3-10.9c-0.5-7.1,2.5-14,8-18.6
	c0.9-0.7,1.3-1.8,1-2.9c-0.2-1.1-1-2-2.1-2.3c-1.1-0.3-2.3-0.5-3.5-0.5c-1.7,0-3.3,0.3-4.8,1c-1.3,0.6-2.7,0.9-4,0.9
	c-2,0-3.9-0.6-5.5-1.8c-4.7-3.2-6.9-11.1-6.4-22.9c0,0,0-1,0-1c2.7-13.7,9.1-26.3,18.5-36.6c0.6-0.7,0.9-1.5,0.8-2.4
	c-1-7.9,1.1-16.1,6-22.4c0.4-0.5,0.6-1,0.6-1.6C40.9,16.3,77.7,3,98.9,3c0.5,0,0.9,0,1.4,0c0,0,0.1,0,0.2,0c0.4,0,0.7,0,1.1,0
	c4.7,0,21.4,0.9,36.7,12.7c14.6,11.2,22.7,28.1,24.2,50.4c0,0.6,0.3,1.2,0.6,1.6c4.9,6.3,7.1,14.5,6,22.4c-0.1,0.9,0.2,1.8,0.8,2.4
	c9.4,10.3,15.8,22.9,18.5,36.6v0.8c0,0.1,0,0.1,0,0.2c0.4,6.8,0,18.8-6.3,23.1c-1.5,0.9-3.3,1.4-5.1,1.4c-1.5,0-3.1-0.4-4.5-1.1
	c-1.3-0.7-2.9-1.1-4.5-1.1s-3.1,0.4-4.5,1.1c-0.9,0.5-1.5,1.3-1.6,2.3s0.3,2,1.1,2.6c5.5,4.5,8.4,11.5,7.9,18.5
	c-0.3,4.2-2.2,8-5.3,10.9c0,0-0.1,0.1-0.1,0.1c-5.5,5.9-15.5,8.9-29.7,8.9h-3.2c-10.9-0.6-21.6-4.1-30.8-10.1
	c-0.5-0.3-1.1-0.5-1.6-0.5c-0.6,0-1.1,0.2-1.6,0.5c-9.1,5.9-19.6,9.4-30.5,10.1C66.9,197,65.9,197,64.8,197z M108,175.4
	c3.5,4.9,16.6,8.1,24.9,8.7c0,0,0.1,0,0.1,0c1,0,1.9,0,2.8,0c13.6,0,20.2-3.4,21.8-6.6c0.2-0.4,0.3-0.9,0.3-1.3v-0.2
	c0.5-6.4-6-10.3-9.5-11.5l-8-2.9l5.1-6.9c1.2-1.6,2.3-3.2,3.3-4.9c4.1-6.2,10.9-10,18.4-10c1.5,0,3.1,0.2,4.6,0.5
	c0.2,0,0.4,0.1,0.6,0.1c0.6,0,1.3-0.2,1.8-0.6c0.7-0.5,1.1-1.3,1.2-2.2c0.1-2.1,0.1-4.2,0-6.3c0-0.2,0-0.3-0.1-0.4
	c-2.7-12.2-8.7-23.3-17.6-32.1l-2.4-2.3l0.3-3.2c1.2-5.3,0.6-11-1.7-16c-0.3-0.7-0.9-1.2-1.5-1.5l-2.7-1.2v-4.3
	c-1.5-51.9-41.6-54.6-49.6-54.6c-8.1,0-48.5,2.6-50,54.7l0,4.4l-2.7,1.2c-0.7,0.3-1.2,0.8-1.5,1.5c-2.3,5-2.8,10.7-1.7,16l0.4,3.1
	l-2.4,2.2c-9,8.7-15.1,19.6-17.9,31.7c0,0.2-0.1,0.3-0.1,0.5c-0.1,2.2-0.1,4.4,0,6.6c0.1,0.9,0.5,1.7,1.2,2.2
	c0.5,0.4,1.2,0.6,1.8,0.6c0.2,0,0.4,0,0.6-0.1c1.4-0.3,2.9-0.4,4.3-0.4c7.6,0,14.6,3.8,18.7,10.1c0.9,1.4,1.9,2.9,3.1,4.5l5.4,7.1
	l-8,2.9c-3.7,1.4-9.8,5.3-9.3,11.4v0.2c0,0.5,0.1,0.9,0.3,1.3c1.6,3.2,8.3,6.6,22.2,6.6c0,0,0,0,0,0c0.9,0,1.8,0,2.8,0
	c0.1,0,0.1,0,0.2,0c7.8-0.7,21-3.9,24.5-8.8c0,0,0.1-0.1,0.1-0.1l1.6-2.5h12.5L108,175.4z"/>
<path class="st1" d="M104,112.1c-21.3-0.2-42.4-3.5-62.7-9.9c-5-1.5-9.9-3.3-14.6-5.2c1.6-2,2.9-3.5,3.6-4.3
	c0.5-0.6,0.8-1.4,0.8-2.1c-0.1-1.9-0.1-3.7,0-5.6c0,0,0.2,0.1,0.4,0.2c1.7,0.7,6.9,2.7,14.6,5.1c13.3,4.1,34.2,8.9,58.2,8.9
	c17.8,0,34.6-2.7,49.9-8c5-1.8,10-3.9,14.7-6.3c0.1,1.8,0.1,3.7,0,5.5c0,0.8,0.2,1.6,0.8,2.2c1.3,1.5,2.6,3,3.8,4.5
	c-4.6,2.2-9.4,4.2-14.3,5.9c-17.5,6.1-35.8,9.2-54.3,9.2C104.9,112.1,104,112.1,104,112.1z"/>
<path class="st1" d="M67.2,136.5c-3.5,0-6.4-2.9-6.4-6.4v-23.4c0-3.5,2.9-6.4,6.4-6.4s6.4,2.9,6.4,6.4v23.4
	C73.5,133.6,70.7,136.5,67.2,136.5z"/>
</svg>
