<?xml version="1.0" encoding="utf-8"?>
<!-- Generator: Adobe Illustrator 25.0.0, SVG Export Plug-In . SVG Version: 6.00 Build 0)  -->
<svg version="1.1" id="图层_1" xmlns="http://www.w3.org/2000/svg" xmlns:xlink="http://www.w3.org/1999/xlink" x="0px" y="0px"
	 viewBox="0 0 200 200" style="enable-background:new 0 0 200 200;" xml:space="preserve">
<style type="text/css">
	.st0{fill:#F8B500;}
	.st1{fill:#15ae2f;}
</style>
<g>
	<path class="st0" d="M100,93.5c-14.3,0-26-11.7-26-26s11.7-26,26-26s26,11.7,26,26S114.3,93.5,100,93.5z M100,53.2
		c-7.9,0-14.3,6.4-14.3,14.3s6.4,14.3,14.3,14.3c7.9,0,14.3-6.4,14.3-14.3S107.9,53.2,100,53.2z"/>
	<path class="st1" d="M100,175.5c-1.3,0-2.6-0.4-3.7-1.3c-2.6-2.1-63.8-53.3-63.8-106.7C32.5,30.3,62.8,0,100,0s67.5,30.3,67.5,67.5
		c0,53.4-61.2,104.5-63.8,106.7C102.7,175.1,101.3,175.5,100,175.5z M100,11.7c-30.8,0-55.8,25-55.8,55.8
		c0,40.8,42.7,82.6,55.8,94.4c13-11.8,55.8-53.6,55.8-94.4C155.8,36.7,130.8,11.7,100,11.7z"/>
	<path class="st1" d="M100,200c-37.3,0-77.5-8.8-77.5-28.2c0-6.6,4.9-15.8,28.1-22.3l5.7-1.6l3.2,11.3l-5.7,1.6
		c-16,4.5-19.6,9.6-19.6,11c0,4.9,22.4,16.5,65.8,16.5s65.8-11.5,65.8-16.5c0-1.9-4.7-6.4-17.3-10.3l-5.6-1.7l3.4-11.2l5.6,1.7
		c21.1,6.5,25.6,15.3,25.6,21.5C177.5,191.2,137.3,200,100,200z"/>
</g>
</svg>
