<?xml version="1.0" encoding="utf-8"?>
<!-- Generator: Adobe Illustrator 25.0.0, SVG Export Plug-In . SVG Version: 6.00 Build 0)  -->
<svg version="1.1" id="图层_1" xmlns="http://www.w3.org/2000/svg" xmlns:xlink="http://www.w3.org/1999/xlink" x="0px" y="0px"
	 viewBox="0 0 200 200" style="enable-background:new 0 0 200 200;" xml:space="preserve">
<style type="text/css">
	.st0{fill:#15ae2f;}
	.st1{fill:#F8B500;}
</style>
<g>
	<path class="st0" d="M153.7,200h-107c-11,0-20-9-20-25V15c0-6,9-15,20-15h106.5c11,0,20,9,20,15v160C173.7,191,164.7,200,153.7,200
		L153.7,200z M46.7,10c-5.5,0-10,4.5-10,5v160c0,10.5,4.5,15,10,15h106.5c5.5,0,10-4.5,10-15V15c0-0.5-4.5-5-10-5H46.7z"/>
	<path class="st0" d="M116.2,31.5H84.7c-3,0-5-2-5-5s2-5,5-5h31.5c3,0,5,2,5,5S118.7,31.5,116.2,31.5z M31.7,144h136.5v10H31.7V144z
		"/>
	<path class="st1" d="M89.4,171.4c0,5.8,4.7,10.6,10.6,10.6s10.6-4.7,10.6-10.6l0,0c0-5.8-4.7-10.6-10.6-10.6S89.4,165.6,89.4,171.4
		z"/>
</g>
</svg>
