<?xml version="1.0" encoding="utf-8"?>
<!-- Generator: Adobe Illustrator 25.0.0, SVG Export Plug-In . SVG Version: 6.00 Build 0)  -->
<svg version="1.1" id="图层_1" xmlns="http://www.w3.org/2000/svg" xmlns:xlink="http://www.w3.org/1999/xlink" x="0px" y="0px"
	 viewBox="0 0 50 50" style="enable-background:new 0 0 50 50;" xml:space="preserve">
<style type="text/css">
	.st0{fill:#FFFFFF;}
	.st1{fill:#F8B500;}
</style>
<g>
	<path class="st0" d="M19.6,28.6L19.6,28.6c-2-0.3-3.7-1-5.2-2.2l-1.9-1.9c-0.6-0.6-1.5-1-2.4-1v-6.8c0-1.9-1.5-3.4-3.3-3.4
		c-1.9,0-3.4,1.5-3.4,3.3c0,0,0,0.1,0,0.1v11.6c0,4.2,2.4,8,6.1,9.9h0l4.1,2.1v4.6c0,0.5,0.4,0.8,0.8,0.9h9c0.5,0,0.8-0.4,0.8-0.9
		V33.6C24.2,31,22.2,28.8,19.6,28.6z M22.5,43.9h-7.3v-4.3c0-0.3-0.2-0.6-0.5-0.8l-4.5-2.3C7,35,5,31.7,5,28.2V16.6h0
		c0-0.9,0.8-1.7,1.7-1.7c0.9,0,1.7,0.8,1.7,1.7v7.3c-1.6,1-2.2,3-1.2,4.7c0.1,0.2,0.3,0.5,0.5,0.7l4.3,4.4c0.3,0.3,0.9,0.3,1.2,0
		c0.3-0.3,0.3-0.8,0-1.2L8.9,28c-0.3-0.3-0.5-0.8-0.5-1.2c0-0.7,0.5-1.4,1.1-1.6c0.6-0.2,1.3-0.1,1.8,0.4l1.9,1.9
		c2,2,6.3,2.7,6.3,2.7c1.7,0.2,3,1.6,3,3.3V43.9z"/>
	<path class="st0" d="M46.7,16.6c0-1.9-1.5-3.4-3.4-3.4c-1.9,0-3.4,1.5-3.4,3.4v6.8c-0.9,0-1.8,0.4-2.4,1l-1.9,1.9
		c-1.5,1.2-3.3,2-5.2,2.2l-0.1,0c-2.6,0.3-4.5,2.4-4.5,5v11.1c0,0.5,0.4,0.8,0.8,0.9h9c0.5,0,0.8-0.4,0.8-0.9v-4.6l2.8-1.4
		c2.1-1.6,4.1-3.4,6.1-5.3h0c0.9-1.6,1.3-3.4,1.3-5.3V16.6z M45,16.6v11.6c0,1.6-0.4,3.1-1.1,4.5c-1.7,1.6-3.5,3.1-5.3,4.6h0
		l-3.2,1.6c-0.3,0.1-0.5,0.4-0.5,0.8v4.3h-7.3V33.6c0-1.7,1.3-3.2,3-3.3l0.1,0c2.3-0.3,4.4-1.3,6.2-2.7l1.9-1.9
		c0.5-0.5,1.1-0.6,1.8-0.4c0.7,0.2,1.1,0.9,1.1,1.6c0,0.5-0.2,0.9-0.5,1.2l-4.3,4.4c-0.3,0.3-0.3,0.9,0,1.2c0.3,0.3,0.8,0.3,1.2,0
		l4.3-4.4c1.3-1.3,1.3-3.5,0-4.8c-0.2-0.2-0.4-0.4-0.7-0.5v-7.3c0-0.9,0.7-1.7,1.7-1.7C44.2,14.9,45,15.6,45,16.6
		C45,16.6,45,16.6,45,16.6z"/>
</g>
<path class="st1" d="M30.3,4.4c-2.2,0-4.2,1.2-5.3,3c-1.1-1.8-3.2-3-5.3-3c-5.2,0-7.1,4.7-7.1,7.7c0,5.1,4,8.3,9.4,13
	c0.8,0.7,1.6,1.4,2.5,2.2c0.3,0.3,0.8,0.3,1.1,0c0.9-0.8,1.7-1.5,2.5-2.2c5.7-4.9,9.4-8,9.4-13C37.4,9.1,35.5,4.4,30.3,4.4z
	 M26.9,23.8l-2,1.7c0,0,0,0,0,0h0l0,0c-0.7-0.6-1.3-1.1-2-1.7c-5.7-4.9-8.8-7.6-8.8-11.7c0-2.8,1.8-6,5.4-6c1.9,0,3.4,1.1,4.6,3.3
	c0.2,0.4,0.7,0.6,1.1,0.3c0.1-0.1,0.3-0.2,0.3-0.3c1.2-2.2,2.7-3.3,4.6-3.3c3.5,0,5.4,3.1,5.4,6C35.7,16.2,32.6,18.9,26.9,23.8z"/>
</svg>
