<?xml version="1.0" encoding="utf-8"?>
<!-- Generator: Adobe Illustrator 25.0.0, SVG Export Plug-In . SVG Version: 6.00 Build 0)  -->
<svg version="1.1" id="图层_1" xmlns="http://www.w3.org/2000/svg" xmlns:xlink="http://www.w3.org/1999/xlink" x="0px" y="0px"
	 viewBox="0 0 50 50" style="enable-background:new 0 0 50 50;" xml:space="preserve">
<style type="text/css">
	.st0{fill:#FFFFFF;}
	.st1{fill:#F8B500;}
</style>
<g>
	<path class="st0" d="M49.2,21.4l-8.5-9.6c-0.2-0.2-0.4-0.3-0.7-0.3H9.9c-0.3,0-0.5,0.1-0.7,0.3l-8.5,9.6c-0.3,0.3-0.3,0.7-0.2,1.1
		c0.1,0.1,0.1,0.2,0.3,0.3l23.4,26.6c0.4,0.4,1,0.4,1.4,0.1c0,0,0.1-0.1,0.1-0.1l23.4-26.6c0.1-0.1,0.2-0.2,0.3-0.3
		C49.6,22.1,49.5,21.6,49.2,21.4L49.2,21.4z M38.4,13.3l-4.3,7l-6.9-7L38.4,13.3L38.4,13.3z M32,21H18l7-7.1L32,21z M22.9,13.3
		l-6.9,7l-4.3-7H22.9L22.9,13.3z M9.8,14l4.3,7H3.6L9.8,14z M3.7,23h11.5L23,45L3.7,23z M27,44.9l8.3-22.3c0.2-0.5-0.1-1.1-0.6-1.3
		c-0.5-0.2-1.1,0.1-1.2,0.6c0,0,0,0,0,0L25,44.8L17.2,23h29.2L27,44.9z M35.9,21l4.3-7l6.2,7L35.9,21L35.9,21z"/>
	<path class="st1" d="M25.1,0.3c-0.5,0-1,0.4-1,1v5c0,0.5,0.4,1,1,1c0.5,0,1-0.4,1-1v-5C26.1,0.8,25.6,0.3,25.1,0.3z"/>
	<path class="st1" d="M33.9,4.2c-0.4-0.4-1-0.4-1.4,0L29,7.7c-0.4,0.4-0.4,1,0,1.4c0.4,0.4,1,0.4,1.4,0c0,0,0,0,0,0l3.5-3.6
		C34.3,5.2,34.3,4.6,33.9,4.2L33.9,4.2z"/>
	<path class="st1" d="M21,7.7l-3.5-3.6c-0.4-0.4-1-0.4-1.4,0c-0.4,0.4-0.4,1,0,1.4l3.5,3.6c0.4,0.4,1,0.4,1.4,0c0,0,0,0,0,0
		C21.4,8.7,21.4,8.1,21,7.7L21,7.7z"/>
</g>
</svg>
