<?xml version="1.0" encoding="utf-8"?>
<!-- Generator: Adobe Illustrator 25.0.0, SVG Export Plug-In . SVG Version: 6.00 Build 0)  -->
<svg version="1.1" id="图层_1" xmlns="http://www.w3.org/2000/svg" xmlns:xlink="http://www.w3.org/1999/xlink" x="0px" y="0px"
	 viewBox="0 0 50 50" style="enable-background:new 0 0 50 50;" xml:space="preserve">
<style type="text/css">
	.st0{fill:#F8B500;}
	.st1{fill:#FFFFFF;}
</style>
<g>
	<path class="st0" d="M21.6,24.9c0,1.9,1.5,3.4,3.4,3.4c1.9,0,3.4-1.5,3.4-3.4c0,0,0,0,0,0c0-1.9-1.5-3.4-3.4-3.4
		C23.1,21.5,21.6,23,21.6,24.9C21.6,24.9,21.6,24.9,21.6,24.9z"/>
	<path class="st1" d="M38.7,24.9c1.5-1.2,2.9-2.4,4.1-3.8c3.6-3.8,5-6.7,3.8-8.8c-1.2-2.1-4.5-2.4-9.5-1c-1.7,0.3-3.4,1-5.3,1.7
		C30.7,5.7,28.4,0,25,0c-3.3,0-5.7,5.7-6.9,13.1c-1.9-0.7-3.6-1.2-5.3-1.7c-5-1.2-8.4-0.9-9.5,1c-1.2,2.1,0.2,5,3.8,8.8
		c1.2,1.2,2.6,2.4,4.1,3.8c-1.5,1.2-2.9,2.4-4.1,3.8c-3.6,3.8-5,6.7-3.8,8.8c0.7,1.2,2.2,1.9,4.5,1.9c1.4,0,3.1-0.2,5-0.7
		c1.7-0.3,3.4-1,5.3-1.7C19.3,44.3,21.6,50,25,50s5.7-5.7,6.9-13.1c1.9,0.7,3.6,1.2,5.3,1.7c1.9,0.5,3.6,0.7,5,0.7
		c2.2,0,3.8-0.7,4.5-1.9c1.2-2.1-0.2-5-3.8-8.8C41.7,27.3,40.3,26.1,38.7,24.9L38.7,24.9z M37.5,13.1c1.9-0.5,3.4-0.7,4.6-0.7
		c1.7,0,2.6,0.3,2.9,1c0.5,0.9-0.2,3.1-3.6,6.7c-1.2,1.2-2.6,2.6-4.3,3.8c-1.4-1.2-3.1-2.2-4.6-3.3c-0.2-1.9-0.3-4-0.5-5.7
		C33.9,14.1,35.8,13.4,37.5,13.1L37.5,13.1z M28.1,30.1c-1,0.5-2.1,1.2-3.1,1.7c-1-0.5-2.1-1-2.9-1.7c-1-0.5-1.9-1.2-2.9-1.7v-3.4
		v-3.4c1-0.7,1.9-1.2,2.9-1.7c1-0.5,2.1-1.2,2.9-1.7c1,0.5,2.1,1,3.1,1.7c1,0.5,1.9,1.2,2.9,1.7v6.9C30,28.9,29,29.6,28.1,30.1z
		 M30.8,30.4c-0.2,1.4-0.2,2.7-0.3,4c-1.2-0.5-2.4-1-3.6-1.7l2.1-1C29.5,31.3,30.2,30.8,30.8,30.4L30.8,30.4z M23.1,32.6
		c-1.2,0.5-2.4,1.2-3.6,1.7c-0.2-1.2-0.3-2.6-0.3-4c0.7,0.3,1.4,0.9,1.9,1.2L23.1,32.6z M17.3,27.1c-1.2-0.7-2.2-1.5-3.3-2.2
		c1-0.7,2.1-1.5,3.3-2.2V27.1z M19.2,19.4c0.2-1.4,0.2-2.7,0.3-4c1.2,0.5,2.4,1,3.6,1.7l-2.1,1C20.5,18.6,19.8,19.1,19.2,19.4z
		 M26.9,17.2c1.2-0.5,2.4-1.2,3.6-1.7c0.2,1.2,0.3,2.6,0.3,4c-0.7-0.3-1.4-0.9-1.9-1.2L26.9,17.2L26.9,17.2z M32.7,22.7
		c1.2,0.7,2.2,1.5,3.3,2.2c-1,0.7-2.1,1.5-3.3,2.2v-2.2C32.7,24.9,32.7,22.7,32.7,22.7z M25,1.7c1.9,0,4.1,4.6,5.2,12
		c-1.7,0.7-3.4,1.5-5.2,2.4c-1.7-0.9-3.4-1.7-5.2-2.4C20.9,6.4,23.1,1.7,25,1.7z M8.5,20.1c-3.4-3.6-4.1-5.8-3.6-6.7
		c0.3-0.5,1.2-1,2.9-1c1.2,0,2.7,0.2,4.6,0.7c1.7,0.3,3.4,1,5.5,1.7l-0.5,5.7c-1.7,1-3.3,2.2-4.6,3.3C11.1,22.5,9.7,21.3,8.5,20.1z
		 M12.5,36.8c-4.8,1.2-7,0.7-7.6-0.3c-0.5-0.9,0.2-3.1,3.6-6.7c1.2-1.2,2.6-2.6,4.3-3.8c1.4,1.2,3.1,2.2,4.6,3.3
		c0.2,1.9,0.3,4,0.5,5.7C16.1,35.7,14.2,36.4,12.5,36.8L12.5,36.8z M25,48.1c-1.9,0-4.1-4.6-5.2-12c1.7-0.7,3.4-1.5,5.2-2.4
		c1.7,0.9,3.4,1.7,5.2,2.4C29.1,43.5,26.9,48.1,25,48.1z M45.1,36.6c-0.5,0.9-2.7,1.5-7.6,0.3c-1.7-0.3-3.4-1-5.5-1.7l0.5-5.7
		c1.7-1,3.3-2.2,4.6-3.3c1.5,1.2,3.1,2.6,4.3,3.8C44.9,33.3,45.6,35.6,45.1,36.6z"/>
</g>
</svg>
