<?xml version="1.0" encoding="utf-8"?>
<!-- Generator: Adobe Illustrator 25.0.0, SVG Export Plug-In . SVG Version: 6.00 Build 0)  -->
<svg version="1.1" id="图层_1" xmlns="http://www.w3.org/2000/svg" xmlns:xlink="http://www.w3.org/1999/xlink" x="0px" y="0px"
	 viewBox="0 0 201.2 200" style="enable-background:new 0 0 201.2 200;" xml:space="preserve">
<style type="text/css">
	.st0{fill:#F8B500;}
	.st1{fill:#15ae2f;}
</style>
<path class="st0" d="M102.5,51.3c8.7,0,16.3,2.5,22.5,7.5s8.8,11.3,8.8,20c0,7.5-1.3,12.5-5,17.5c-1.3,1.3-5,5-12.5,11.2
	c-2.5,2.5-5,5-6.3,7.5c-1.3,2.5-2.5,6.3-2.5,8.7v2.5h-15v-2.5c0-5,1.3-10,2.5-13.8c1.3-3.8,7.5-10,16.2-17.5l2.5-2.5
	c2.5-2.5,3.8-6.3,3.8-10c0-5-1.3-8.8-3.8-11.3c-2.5-2.5-7.5-3.8-12.5-3.8C95,63.7,90,66.2,87.5,70c-2.5,3.8-3.8,8.8-3.8,15h-15
	c0-10,2.5-18.8,8.8-23.8C83.8,53.7,92.5,51.2,102.5,51.3L102.5,51.3z M100,133.8c2.5,0,5,1.3,7.5,2.5c2.5,1.3,2.5,3.8,2.5,7.5
	s0,6.3-2.5,7.5c-2.5,1.3-5,2.5-7.5,2.5s-5-1.3-7.5-2.5c-2.5-2.5-2.5-5-2.5-7.5c0-2.5,1.3-5,2.5-7.5C95,135,97.5,133.8,100,133.8z"/>
<path class="st1" d="M101.3,200c-55,0-100-45-100-100s45-100,100-100c21.2,0,41.2,6.3,58.7,18.8c2.5,2.5,3.8,6.3,1.3,8.8
	c-2.5,2.5-6.3,3.8-8.7,1.3c-15-11.3-32.5-16.3-51.3-16.3c-48.8,0-87.5,38.8-87.5,87.5s38.8,87.5,87.5,87.5s87.5-38.8,87.5-87.5
	c0-15-3.8-30-11.2-43.8c-1.3-2.5-1.3-6.3,2.5-8.8c2.5-1.3,6.3-1.3,8.8,2.5c7.5,15,12.5,32.5,12.5,50C201.3,155,156.3,200,101.3,200z
	"/>
</svg>
