<?xml version="1.0" encoding="utf-8"?>
<!-- Generator: Adobe Illustrator 25.0.0, SVG Export Plug-In . SVG Version: 6.00 Build 0)  -->
<svg version="1.1" id="图层_1" xmlns="http://www.w3.org/2000/svg" xmlns:xlink="http://www.w3.org/1999/xlink" x="0px" y="0px"
	 viewBox="0 0 200 200" style="enable-background:new 0 0 200 200;" xml:space="preserve">
<style type="text/css">
	.st0{fill:#15ae2f;}
	.st1{fill:#F8B500;}
</style>
<path class="st0" d="M55.9,185.6c-0.9,0-1.5-0.2-2.2-0.5c-0.1-0.1-0.3-0.1-0.5-0.2l-0.2-0.1l-0.2-0.1c-1.5-1.1-2.5-2.9-2.5-4.7v-8.5
	H33.5c-8.9,0-17.3-3.5-23.6-9.9C3.5,155.3,0,147,0,138.1V70.9C0,62,3.5,53.6,9.9,47.2c6.4-6.4,14.7-9.9,23.6-9.9h100.8
	c8.9,0,17.3,3.5,23.6,9.9c6.4,6.4,9.9,14.7,9.9,23.6v67.2c0,8.9-3.5,17.3-9.9,23.6c-6.4,6.4-14.7,9.9-23.6,9.9h-49l-26.9,13.3
	C57.8,185.2,56.7,185.6,55.9,185.6L55.9,185.6z M33.5,48.3c-12.4,0-22.5,10.1-22.5,22.5v67.2c0,12.4,10.1,22.5,22.5,22.5h22.4
	c3,0,5.5,2.5,5.5,5.5v5.2l20-10c0.6-0.3,1.4-0.7,2.5-0.7h50.4c12.4,0,22.5-10.1,22.5-22.5V70.9c0-12.4-10.1-22.5-22.5-22.5
	C134.3,48.3,33.5,48.3,33.5,48.3z"/>
<path class="st0" d="M175.1,153.3v-10.9h1.3c10.9,0,12.7-5.7,12.7-18.3V42.8c0-11.7-9.5-21.1-21.1-21.1H75.5
	c-4.2,0-8.5,0.2-11.7,1.8c-2.9,1.5-4.8,4.2-5.9,8.5l-0.2,0.9H46.4l0.1-1.4c0.7-7.2,3.4-12.6,8.1-16.1c4.3-3.2,10.2-4.7,18-4.7h98
	c16.1,0,29.3,13.1,29.3,29.3v86.8c0,8.8-1.3,14.8-4.2,19.1c-3.4,5-8.8,7.4-16.6,7.4H175.1z"/>
<path class="st1" d="M43.3,128.1c-3,0-5.5-2.5-5.5-5.5c0-3,2.5-5.5,5.5-5.5h30.8c3,0,5.5,2.5,5.5,5.5c0,3-2.5,5.5-5.5,5.5H43.3z"/>
<path class="st1" d="M43.3,97.3c-3,0-5.5-2.5-5.5-5.5c0-3,2.5-5.5,5.5-5.5h81.2c3,0,5.5,2.5,5.5,5.5c0,3-2.5,5.5-5.5,5.5H43.3z"/>
</svg>
