<?xml version="1.0" encoding="utf-8"?>
<!-- Generator: Adobe Illustrator 25.0.0, SVG Export Plug-In . SVG Version: 6.00 Build 0)  -->
<svg version="1.1" id="图层_1" xmlns="http://www.w3.org/2000/svg" xmlns:xlink="http://www.w3.org/1999/xlink" x="0px" y="0px"
	 viewBox="0 0 1920 341.8" style="enable-background:new 0 0 1920 341.8;" xml:space="preserve">
<style type="text/css">
	.st0{fill:none;stroke:#A0A2A5;stroke-width:3;}
</style>
<path id="形状_1378" class="st0" d="M-10.4,329.7c7.1-2.5,144.1-46.4,206.7-38.5s127.4-18.3,152.2-14.8
	c24.8,3.6,96.1,2.8,128.2,16.8c32.2,14,56.4,2,66.2-1c16.5-5,124.7-56.6,145.8-58.2c21.1-1.7,28.1-0.3,42.7,5.6s33.6,9,40.6,8.5
	c7-0.5,13.3-3.7,20.9,2.3c7.6,6,7.5,9.4,18.3,12.1c9.4,2.4,19.1,4,28.8,4.8c7.9,0.5,32.3-11.6,48.3-3.1c16,8.5,17.9,12.1,26.3,12.6
	c8.4,0.6,64.9-12.6,75.4-20.5c10.4-7.8,23.3-19.2,46.4-21.2c23.1-2.1,30.3-27.3,53.4-21.8s32.4-5.6,37.4-5.7s11.3,12.7,26.3,12.6
	c15,0,40,1.4,49,2c8.9,0.6,34.9-4.9,48.2-2.1c13.3,2.9,18.9-4.9,38.2-1.7c19.3,3.2,42.3-3.5,54.2-1.7c11.9,1.8,28.6-8.3,31.8-12.1
	s8-6.6,21.8-11.7s9.5-7.5,23.6-8.6c14-1.1,27.3-11.9,39.1-17.7c11.8-5.8,18.2-9.5,24.4-6.5c6.3,2.9,20.6,8.2,26.8,4.6
	c6.2-3.6,6.3-4.7,15.1-1.1s24.3,22,45.4,10.8c21.2-11.2,41.4-22.6,43.7-26.4c2.3-3.8,30.3-22.4,43.6-26.5s18.2-15.5,28.6-14.2
	c10.5,1.3,14,2.3,18.2,8.1c4.2,5.9,20.8,8.2,28.4,6.8c7.7-1.4,19-7.5,26.4-6.4s9.8,3.6,9.8,3.6s6.3,4.8,11.2,6.7
	c4.9,1.9,10.6,6.5,10.5,8.7c-0.1,2.1,3.6,2.2,3.6,2.2s10.3-5,20,0.2c9.8,5.2,12.6,3.2,15.4,7c2.8,3.8,5.4,9.7,9.4,9.6
	c4-0.1,6.8,6.3,10.2,9.6s24.4-0.6,33.5,7.1c9.1,7.7,30,6.2,37.3,18.3"/>
</svg>
