<?xml version="1.0" encoding="utf-8"?>
<!-- Generator: Adobe Illustrator 25.0.0, SVG Export Plug-In . SVG Version: 6.00 Build 0)  -->
<svg version="1.1" id="图层_1" xmlns="http://www.w3.org/2000/svg" xmlns:xlink="http://www.w3.org/1999/xlink" x="0px" y="0px"
	 viewBox="0 0 200 200" style="enable-background:new 0 0 200 200;" xml:space="preserve">
<style type="text/css">
	.st0{fill:#FFFFFF;}
</style>
<g>
	<path class="st0" d="M176.2,73.2C174.9,33.9,141.7,0.7,101.7,0c-20.3,0-40,7.5-54.9,21.7S23.7,55.6,23.7,75.9
		c0,28.5,16.3,55.6,42,68.5l10.8,19.7h46.8l10.8-19.7C161.3,130.8,177.6,103.7,176.2,73.2z M128.8,136.3l-1.4,0.7l-9.5,16.9H83.4
		l-10.2-16.9l-1.4-0.7c-23.1-10.8-38-34.6-38-59.7c0-17.6,6.8-34.6,19.7-47.5c12.9-12.2,29.2-19,46.8-19h1.4
		c34.6,0.7,63.7,29.2,65.1,63.7C167.4,100.3,152.5,124.7,128.8,136.3L128.8,136.3z M120.6,172.2H80c-2.7,0-5.4,2-5.4,5.4
		s2,5.4,5.4,5.4h40.7c2.7,0,5.4-2,5.4-5.4S123.4,172.2,120.6,172.2z M110.5,189.2H90.1c-2.7,0-5.4,2-5.4,5.4s2,5.4,5.4,5.4h20.3
		c2.7,0,5.4-2,5.4-5.4S113.2,189.2,110.5,189.2z"/>
	<path class="st0" d="M112.2,52.2c-2-2-5.4-2-7.5,0L87.8,69.2c-2,2-2,5.4,0,7.5l13.6,13.6l-13.6,13.6c-2,2-2,5.4,0,7.5
		c0.7,0.7,2,1.4,3.4,1.4s2.7-0.7,3.4-1.4l16.9-16.9c2-2,2-5.4,0-7.5L98,73.2l13.6-13.6C114.3,57.6,114.3,54.2,112.2,52.2z"/>
</g>
</svg>
