<?xml version="1.0" encoding="utf-8"?>
<!-- Generator: Adobe Illustrator 25.0.0, SVG Export Plug-In . SVG Version: 6.00 Build 0)  -->
<svg version="1.1" id="图层_1" xmlns="http://www.w3.org/2000/svg" xmlns:xlink="http://www.w3.org/1999/xlink" x="0px" y="0px"
	 viewBox="0 0 200 200" style="enable-background:new 0 0 200 200;" xml:space="preserve">
<style type="text/css">
	.st0{fill:#FFFFFF;}
</style>
<path class="st0" d="M98.8,195.8c-0.5,0-1-0.1-1.4-0.4c-0.4-0.2-0.7-0.6-1-1l0-0.1L1.5,72.1c-1.8-2.8-2-6.5-0.6-9.5L28.5,9.2
	l0.1-0.1c1.8-2.9,4.8-4.7,8.1-4.9l126.9,0c3.3,0.2,6.3,2.1,8.1,5l27.6,54.2c1.3,3.2,1,6.8-1,9.7l-88.7,111.6l-8.2,9.7l0,0.1
	C100.8,195.3,99.8,195.8,98.8,195.8L98.8,195.8z M145.1,66.4l-40.7,105l1.8,1.1l84.6-106.1L145.1,66.4z M91.5,171.5l1.9-1.1
	L53.8,67.8l-0.6-1.3H9.6L91.5,171.5z M99,158.3l35.6-91.9H63.1L99,158.3z M148.8,56.2h35l-19.5-39.2L148.8,56.2L148.8,56.2z
	 M68.1,56.2h62.5L99.3,13.3L68.1,56.2z M15.3,56.2h34L34.8,18.5C34.8,18.5,15.3,56.2,15.3,56.2z M59.7,56.1l28.9-40.3v-1.4l-1.1,0
	H42.8C42.8,14.3,59.7,56.1,59.7,56.1z M138.6,55.1l16.2-40.7h-45.4L138.6,55.1z"/>
</svg>
