<?xml version="1.0" encoding="utf-8"?>
<!-- Generator: Adobe Illustrator 25.0.0, SVG Export Plug-In . SVG Version: 6.00 Build 0)  -->
<svg version="1.1" id="图层_1" xmlns="http://www.w3.org/2000/svg" xmlns:xlink="http://www.w3.org/1999/xlink" x="0px" y="0px"
	 viewBox="0 0 200 200" style="enable-background:new 0 0 200 200;" xml:space="preserve">
<style type="text/css">
	.st0{fill:#FFFFFF;}
</style>
<g>
	<path class="st0" d="M85.7,133.8c-1.4,0-2.7-0.5-3.8-1.6l-28.3-28.3c-2.1-2.1-2.1-5.5,0-7.5c2.1-2.1,5.5-2.1,7.5,0l24.6,24.6
		l53.1-53.1c2.1-2.1,5.5-2.1,7.5,0c2.1,2.1,2.1,5.5,0,7.5l-56.9,56.9C88.5,133.3,87.1,133.8,85.7,133.8z"/>
	<path class="st0" d="M100.3,200c-0.6,0-1.2-0.1-1.8-0.3c-14.5-5.1-27.3-11.2-38.2-18.1c-8.9-5.6-16.5-11.8-22.7-18.4
		c-10.4-11.1-13.4-19.8-13.9-21.2c-5.2-15.7-8.7-41.6-9.1-67.8c-0.2-12.6,0.4-24,1.6-33c1.5-10.9,3.9-18.1,7.4-21.8
		c2.7-2.9,6.1-4,9.7-3.1c22.2,5.5,32.7-0.3,47.2-8.4c4-2.2,8.1-4.5,12.7-6.7c0.6-0.3,2.2-1,7-1c3.1,0,5.3,0.3,6.7,0.9
		c6.4,2.6,11.8,5.6,16.6,8.2c12.7,7,21.8,12.1,42.1,7c0.4-0.1,0.7-0.1,1-0.2c2.5-0.1,6.3,0.6,9.5,5c3.3,4.4,5.7,11.7,7.3,22.4
		c1.3,9.1,2,20.4,1.9,32.6c-0.2,25.3-3.5,50.5-8.6,66c-0.4,1.3-3.5,10.1-14,21.3c-6.2,6.6-13.8,12.8-22.7,18.4
		c-10.9,6.9-23.7,13-38.1,18C101.4,199.9,100.9,200,100.3,200L100.3,200z M33.9,138.8c0.1,0.3,2.6,7.8,12,17.7
		c8.7,9.1,25.1,22,54.3,32.5c29.6-10.7,46.1-23.8,54.8-33c9.2-9.8,11.6-17.1,11.6-17.2c0,0,0-0.1,0-0.1c5.2-15.6,8.4-42.1,8.1-67.7
		c-0.1-12.4-1.1-23.2-2.7-31.4c-1.9-9.4-4.2-12.1-4.9-12.8c-6.1,1.4-11.5,2.1-16.3,2.1c-13.7,0-22.9-5.1-32.5-10.4
		c-4.7-2.6-9.5-5.3-15.2-7.6c-1.2-0.2-4.5-0.2-5.7,0c-4.2,2-8,4.2-11.8,6.2C74.9,23.1,64.4,29,49.1,29c-5.3,0-11.1-0.7-17.7-2.3
		c-0.7,0.9-2.7,4-4.2,13.6c-1.3,8.4-2,19.3-1.9,31.6c0.2,25.5,3.6,51.7,8.6,66.7C33.9,138.7,33.9,138.8,33.9,138.8L33.9,138.8z
		 M33.9,138.8C33.9,138.8,33.9,138.9,33.9,138.8C33.9,138.9,33.9,138.9,33.9,138.8z"/>
</g>
</svg>
