<?xml version="1.0" encoding="utf-8"?>
<!-- Generator: Adobe Illustrator 25.0.0, SVG Export Plug-In . SVG Version: 6.00 Build 0)  -->
<svg version="1.1" id="图层_1" xmlns="http://www.w3.org/2000/svg" xmlns:xlink="http://www.w3.org/1999/xlink" x="0px" y="0px"
	 viewBox="0 0 200 200" style="enable-background:new 0 0 200 200;" xml:space="preserve">
<style type="text/css">
	.st0{fill:#FFFFFF;}
</style>
<g>
	<path class="st0" d="M69.8,141.4c-2.8,0-5-2.2-5-5c0-0.3,0-0.6,0.1-0.8l5.3-31L47.7,82.6c-2-1.9-2-5.1-0.1-7.1
		c0.8-0.8,1.8-1.3,2.9-1.5l31.1-4.5l13.9-28.2c1.2-2.5,4.2-3.5,6.7-2.3c1,0.5,1.8,1.3,2.3,2.3l13.9,28.2l31.1,4.5
		c2.7,0.4,4.6,2.9,4.2,5.7c-0.2,1.1-0.7,2.1-1.5,2.9l-22.5,21.9l5.3,31c0.5,2.7-1.4,5.3-4.1,5.8c-1.1,0.2-2.2,0-3.2-0.5L100,126.2
		l-27.8,14.6C71.5,141.2,70.7,141.4,69.8,141.4L69.8,141.4z M62,82.5l17.1,16.7c1.2,1.1,1.7,2.8,1.4,4.4l-4,23.6l21.2-11.1
		c1.5-0.8,3.2-0.8,4.7,0l21.2,11.1l-4-23.6c-0.3-1.6,0.3-3.3,1.4-4.4L138,82.5l-23.7-3.4c-1.6-0.2-3-1.3-3.8-2.7L100,54.9L89.4,76.4
		c-0.7,1.5-2.1,2.5-3.8,2.7C85.6,79.1,62,82.5,62,82.5z"/>
	<path class="st0" d="M100,180c-49.6,0-90-40.4-90-90S50.4,0,100,0s90,40.4,90,90S149.6,180,100,180z M100,10c-44.1,0-80,35.9-80,80
		s35.9,80,80,80s80-35.9,80-80S144.1,10,100,10z"/>
	<path class="st0" d="M50,200c-27.6,0-50-22.4-50-50c0-13.9,5.8-27.2,16-36.6c2.1-1.8,5.2-1.7,7.1,0.4c1.8,2,1.7,5.1-0.3,6.9
		C14.6,128.3,10,138.9,10,150c0,22.1,17.9,40,40,40c13.7,0,26.4-7,33.7-18.5c1.5-2.3,4.6-3,6.9-1.5c2.3,1.5,3,4.6,1.5,6.9
		C83,191.3,67.2,200,50,200z M150,200c-17.2,0-33-8.7-42.2-23.2c-1.4-2.4-0.7-5.4,1.7-6.9c2.3-1.4,5.3-0.7,6.8,1.5
		c7.3,11.6,20,18.6,33.7,18.5c22.1,0,40-17.9,40-40c0-11.1-4.6-21.7-12.8-29.3c-2-1.9-2.1-5-0.3-7.1c0,0,0,0,0,0
		c1.9-2,5-2.1,7.1-0.3c0,0,0,0,0,0c10.2,9.5,16,22.7,16,36.6C200,177.6,177.6,200,150,200z"/>
</g>
</svg>
