<?xml version="1.0" encoding="utf-8"?>
<!-- Generator: Adobe Illustrator 25.0.0, SVG Export Plug-In . SVG Version: 6.00 Build 0)  -->
<svg version="1.1" id="图层_1" xmlns="http://www.w3.org/2000/svg" xmlns:xlink="http://www.w3.org/1999/xlink" x="0px" y="0px"
	 viewBox="0 0 200 200" style="enable-background:new 0 0 200 200;" xml:space="preserve">
<style type="text/css">
	.st0{fill:#FFFFFF;}
</style>
<g>
	<path class="st0" d="M58.1,95.8c-22.5-20.4-24.3-55.2-3.9-77.7s55.2-24.3,77.7-3.9s24.3,55.2,3.9,77.7
		c-17.3,19.2-45.7,23.7-68.1,10.9c-33.3,12-57.7,45.2-57.7,83c0,2.3,1.5,3.5,5.4,4.2c2,0.4,3.9,0.5,6.9,0.5H95v9.4H22.3
		c-3.6,0-5.9-0.1-8.7-0.6C5.5,197.6,0,193.2,0,185.2C0,145.7,24.1,110.8,58.1,95.8L58.1,95.8z M95,100c24.9,0,45-20.1,45-45
		s-20.1-45-45-45S50,30.1,50,55S70.1,100,95,100z M86.5,114.7h13.8c2.5,0,4.6,1.8,4.9,4.3l5.3,38.5c0.2,1.6-0.3,3.1-1.5,4.3
		c-7.7,7.6-12.9,11.3-15.6,11.4c-2.7,0-8-3.8-15.7-11.4c-1.1-1.1-1.7-2.7-1.5-4.2l5.2-38.5C81.9,116.5,84,114.7,86.5,114.7
		L86.5,114.7z M86.6,156.3c2.2,2.1,4.5,4.1,6.9,5.9l0.1-0.1c1.8-1.3,4-3.2,6.7-5.8l-4.4-31.7h-5.1L86.6,156.3L86.6,156.3z M132,130
		c-2.8,0-5-2.2-5-5c0-2.8,2.2-5,5-5l0,0h50c2.8,0,5,2.2,5,5c0,2.8-2.2,5-5,5H132z M132,165c-2.8,0-5-2.2-5-5s2.2-5,5-5l0,0h55
		c2.8,0,5,2.2,5,5s-2.2,5-5,5H132L132,165z M128,199.9c-2.8,0-5-2.2-5-5s2.2-5,5-5l67,0.1c2.8,0,5,2.2,5,5c0,2.8-2.2,5-5,5
		L128,199.9L128,199.9z"/>
</g>
</svg>
