<?xml version="1.0" encoding="utf-8"?>
<!-- Generator: Adobe Illustrator 25.0.0, SVG Export Plug-In . SVG Version: 6.00 Build 0)  -->
<svg version="1.1" id="图层_1" xmlns="http://www.w3.org/2000/svg" xmlns:xlink="http://www.w3.org/1999/xlink" x="0px" y="0px"
	 viewBox="0 0 200 200" style="enable-background:new 0 0 200 200;" xml:space="preserve">
<style type="text/css">
	.st0{fill:#15ae2f;}
	.st1{fill:#F8B500;}
</style>
<g>
	<path class="st0" d="M186.7,17H14C6.7,17,0.7,23,0.7,31v43.3c0,2,3.3,4,5.3,4s5.3-2,5.3-4V35v-1.3L98,103c1.3,1.3,4,1.3,5.3-0.7
		L188.7,35v130.7c0,3.3-2.7,6-5.3,6H4.7c-2,0-4,3.3-4,5.3s2,6,4,6h182c7.3,0,13.3-6,13.3-14V30.3C200,23,194,17,186.7,17z M22,27.7
		h157.3l-78,62.7L22,27.7z"/>
	<path class="st1" d="M89.3,133c0-3.3-2.7-5.3-4.7-5.3h-80c-2,0-4.7,2.7-4.7,5.3c0,3.3,2,5.3,4.7,5.3h80
		C87.3,138.3,89.3,136.3,89.3,133z M50,105H4.7c-2,0-4.7,2.7-4.7,5.3s2,5.3,4.7,5.3H50c2,0,5.3-2,5.3-5.3C55.3,107,52.7,105,50,105z
		"/>
</g>
</svg>
