<?xml version="1.0" encoding="utf-8"?>
<!-- Generator: Adobe Illustrator 25.0.0, SVG Export Plug-In . SVG Version: 6.00 Build 0)  -->
<svg version="1.1" id="图层_1" xmlns="http://www.w3.org/2000/svg" xmlns:xlink="http://www.w3.org/1999/xlink" x="0px" y="0px"
	 viewBox="0 0 200 200" style="enable-background:new 0 0 200 200;" xml:space="preserve">
<style type="text/css">
	.st0{fill:#00A1E9;}
	.st1{fill:#F8B500;}
</style>
<g>
	<path class="st0" d="M196.4,170.7c-0.2,0.3-21.1,29.3-33,29.3H163c-34-1.1-73.8-34.2-101.3-61.7C34.4,110.7,1.4,70.8,0.3,36.7
		C0,24.6,29.2,3.3,29.5,3.1c6.9-4.8,16.1-3.8,20,1.5c2.3,3.2,24.3,36.7,26.8,40.6c2.6,4.1,2.2,10.1-1,16.2c-1.7,3.2-7.2,13-9.9,17.7
		c3,4.2,10.5,14.2,25.9,29.6c15.5,15.6,25.3,23.1,29.5,26.1c5.9-3.4,11.7-6.7,17.7-10c5.8-3.1,11.9-3.5,16-1
		c4.1,2.5,37.4,24.7,40.4,26.9C199.9,154.1,201.9,162.8,196.4,170.7L196.4,170.7z M189.2,158.8c-2.5-1.8-35.9-24.1-39.9-26.5
		c-0.4-0.2-0.8-0.2-1.1-0.2c-1.4,0-3.3,0.6-5.1,1.5c-4.1,2.1-19.8,11.2-20,11.3l-2.5,1.4l-2.5-1.5c-0.5-0.3-11.8-7.1-33.8-29.1
		c-22-22.1-28.8-33.5-29-33.9l-1.5-2.5l1.4-2.5c0.1-0.2,9.1-16,11.3-20.1c1.8-3.4,1.6-5.8,1.4-6.2c-8.7-13.4-17.5-26.8-26.4-40.1
		c-0.1-0.1-0.8-0.6-2.1-0.6c-1.5,0-2.9,0.6-4.1,1.5c-9,6.3-24.5,20.8-24.9,25.1c1,30.8,32.4,68.6,58.5,94.9s63.8,57.8,94.5,58.8h0
		c4.2-0.5,18.7-16,25-25C190.6,161.7,189.6,159.2,189.2,158.8L189.2,158.8z"/>
	<path class="st1" d="M138.8,88.6c0,3.1-2.5,5.5-5.5,5.5c-3.1,0-5.5-2.5-5.5-5.5c0-15.3-12.4-27.7-27.7-27.7c-3.1,0-5.5-2.5-5.5-5.5
		c0-3.1,2.5-5.5,5.5-5.5l0,0C121.5,49.9,138.8,67.2,138.8,88.6C138.8,88.6,138.8,88.6,138.8,88.6z"/>
	<path class="st1" d="M172.1,88.6c0,3.1-2.5,5.5-5.5,5.5c-3.1,0-5.5-2.5-5.5-5.5c0-33.7-27.3-60.9-60.9-60.9c-3.1,0-5.5-2.5-5.5-5.5
		c0-3.1,2.5-5.5,5.5-5.5C139.8,16.6,172.1,48.9,172.1,88.6L172.1,88.6z"/>
</g>
</svg>
