<?xml version="1.0" encoding="utf-8"?>
<!-- Generator: Adobe Illustrator 25.0.0, SVG Export Plug-In . SVG Version: 6.00 Build 0)  -->
<svg version="1.1" id="图层_1" xmlns="http://www.w3.org/2000/svg" xmlns:xlink="http://www.w3.org/1999/xlink" x="0px" y="0px"
	 viewBox="0 0 200 200" style="enable-background:new 0 0 200 200;" xml:space="preserve">
<style type="text/css">
	.st0{fill:#00A1E9;}
	.st1{fill:#F8B500;}
</style>
<g>
	<path class="st0" d="M195,55.1c0-4.2-1.5-7.7-4.4-10.6c-2.9-2.9-6.5-4.4-10.6-4.4h-15V15c0-4.2-1.5-7.7-4.4-10.6
		c-2.9-2.9-6.4-4.4-10.4-4.4H50.9c-4,0-7.5,1.5-10.4,4.4c-2.9,2.9-4.4,6.5-4.4,10.6v25H21c-4.2,0-7.7,1.5-10.6,4.4
		C7.5,47.4,6,50.9,6,55.1v89.8c0,4.2,1.5,7.7,4.4,10.6c2.9,2.9,6.5,4.4,10.6,4.4h15v25c0,4.2,1.5,7.7,4.4,10.6
		c2.9,2.9,6.4,4.4,10.4,4.4h99.2c4,0,7.5-1.5,10.4-4.4c2.9-2.9,4.4-6.5,4.4-10.6v-25h15c4.2,0,7.7-1.5,10.6-4.4
		c2.9-2.9,4.4-6.5,4.4-10.6L195,55.1z M46,15L46,15L46,15c0-0.7,0.1-1.3,0.4-2c0.3-0.7,0.6-1.2,1.1-1.7c0.4-0.4,1-0.8,1.6-1.1
		c0.6-0.3,1.2-0.4,1.9-0.4h99.2c1.3,0,2.4,0.5,3.4,1.5c1,1,1.5,2.2,1.5,3.6v25L46,40V15z M155,185c0,0.9-0.2,1.8-0.7,2.5
		c-0.5,0.8-1,1.4-1.8,1.9c-0.7,0.5-1.5,0.7-2.4,0.7h0v0H50.9c-0.4,0-0.8-0.1-1.3-0.2c-0.5-0.1-0.8-0.3-1.2-0.5
		c-0.3-0.2-0.7-0.4-1-0.8c-0.3-0.3-0.6-0.7-0.8-1.1c-0.2-0.4-0.4-0.8-0.5-1.2c-0.1-0.4-0.2-0.9-0.2-1.4v-65H155V185z M185.1,144.9
		L185.1,144.9L185.1,144.9c0,0.8-0.2,1.5-0.4,2c-0.3,0.6-0.6,1.1-1.1,1.6c-0.4,0.5-1,0.8-1.7,1.1c-0.7,0.3-1.3,0.4-2,0.4h-15v-30.1
		h5.1c1.4,0,2.6-0.5,3.6-1.5c1-1,1.5-2.1,1.5-3.4c0-0.5-0.1-1-0.3-1.6c-0.2-0.5-0.5-1-0.8-1.4c-0.3-0.4-0.7-0.7-1.1-1.1
		c-0.4-0.3-0.8-0.6-1.4-0.8c-0.5-0.2-1-0.3-1.6-0.3H31c-1.4,0-2.6,0.5-3.6,1.5c-1,1-1.5,2.2-1.5,3.6c0,0.5,0.1,1,0.3,1.6
		c0.2,0.5,0.5,1,0.8,1.4c0.3,0.4,0.7,0.8,1.1,1.1c0.4,0.3,0.8,0.6,1.4,0.7c0.5,0.1,1,0.2,1.6,0.2h5.1V150H21c-1.4,0-2.6-0.5-3.6-1.5
		c-1-1-1.5-2.2-1.5-3.6V55.1c0-0.8,0.1-1.5,0.4-2.1c0.3-0.6,0.6-1.1,1.1-1.6c0.4-0.5,1-0.8,1.7-1.1c0.7-0.3,1.3-0.4,2-0.4H180
		c0.7,0,1.3,0.1,2,0.4c0.7,0.3,1.2,0.6,1.7,1.1c0.4,0.4,0.8,1,1.1,1.6c0.3,0.6,0.4,1.3,0.4,2.1V144.9z"/>
	<path class="st0" d="M139.9,140.1H61.1c-0.9,0-1.7,0.2-2.5,0.6c-0.8,0.4-1.4,1-1.9,1.8c-0.4,0.8-0.7,1.6-0.7,2.5
		c0,0.5,0.1,1,0.3,1.6c0.2,0.5,0.4,1,0.7,1.4c0.3,0.4,0.6,0.8,1.1,1.1c0.5,0.3,0.9,0.6,1.4,0.8c0.4,0.2,1,0.3,1.7,0.3h78.8l0,0
		c0.8,0,1.5-0.1,2.1-0.4c0.6-0.3,1.1-0.6,1.6-1.1c0.4-0.4,0.8-1,1.1-1.7c0.3-0.7,0.4-1.3,0.4-2c0-1.3-0.5-2.4-1.5-3.4
		C142.6,140.6,141.3,140.1,139.9,140.1z"/>
	<path class="st0" d="M139.9,159.9H61.1c-1.4,0-2.6,0.5-3.6,1.5c-1,1-1.5,2.2-1.5,3.6c0,0.5,0.1,1,0.3,1.6c0.2,0.5,0.4,1,0.7,1.4
		c0.3,0.4,0.6,0.8,1.1,1.1c0.5,0.3,0.9,0.6,1.4,0.8c0.4,0.2,1,0.3,1.7,0.3h78.8c0.8,0,1.5-0.1,2.1-0.4c0.6-0.3,1.1-0.6,1.6-1.1
		c0.4-0.5,0.8-1,1.1-1.7c0.3-0.7,0.4-1.3,0.4-2c0-1.4-0.5-2.6-1.5-3.6C142.6,160.4,141.3,159.9,139.9,159.9z"/>
	<path class="st1" d="M160,60c-2.7,0-5.2,0.7-7.5,2.1c-2.3,1.4-4.1,3.2-5.5,5.5c-1.4,2.3-2.1,4.8-2.1,7.5c0,4.2,1.5,7.7,4.4,10.6
		c2.9,2.9,6.5,4.4,10.6,4.4c2.7,0,5.2-0.7,7.5-2.1c2.3-1.4,4.1-3.2,5.5-5.5c1.4-2.3,2.1-4.8,2.1-7.5c0-4.2-1.5-7.7-4.4-10.6
		C167.8,61.4,164.2,60,160,60z M166.9,82.1c-1.9,1.9-4.2,2.9-6.9,2.9c-2.7,0-5-1-6.9-2.9c-1.9-1.9-2.9-4.3-2.9-7.1s0.9-5.2,2.9-7.1
		c1.9-1.9,4.2-2.9,6.9-2.9c2.7,0,5,1,6.9,2.9c1.9,1.9,2.9,4.3,2.9,7.1C169.7,77.8,168.8,80.2,166.9,82.1z"/>
</g>
</svg>
