<?xml version="1.0" encoding="utf-8"?>
<!-- Generator: Adobe Illustrator 25.0.0, SVG Export Plug-In . SVG Version: 6.00 Build 0)  -->
<svg version="1.1" id="图层_1" xmlns="http://www.w3.org/2000/svg" xmlns:xlink="http://www.w3.org/1999/xlink" x="0px" y="0px"
	 viewBox="0 0 200 200" style="enable-background:new 0 0 200 200;" xml:space="preserve">
<style type="text/css">
	.st0{fill:#00A1E9;}
	.st1{fill:#F8B500;}
</style>
<g>
	<path class="st0" d="M185,185c-0.8,0-1.6-0.3-2.4-0.6l-13.1-6.9c-9.4,4.9-19.9,7.5-30.8,7.5c-33.7,0-61.2-24.6-61.2-55
		s27.5-55,61.2-55S200,99.6,200,130c0,12.1-4.5,24-12.8,33.6l2.6,15.6c0.4,1.9-0.5,3.8-2,4.9C187,184.6,186,185,185,185L185,185z
		 M138.8,85c-28.3,0-51.3,20.1-51.3,45s23,45,51.3,45c10.1,0,19.9-2.6,28.3-7.5c1.5-0.9,3.4-0.9,4.9-0.1l6.5,3.4l-1.4-8
		c-0.3-1.5,0.3-3.1,1.3-4.3c7.5-8,11.8-18.2,11.8-28.6C190,105.1,167,85,138.8,85z"/>
	<path class="st1" d="M108.8,116.1c0,4.1,3.4,7.5,7.5,7.5c4.1,0,7.5-3.4,7.5-7.5c0-4.1-3.4-7.5-7.5-7.5
		C112.1,108.6,108.8,112,108.8,116.1C108.8,116.1,108.8,116.1,108.8,116.1L108.8,116.1z"/>
	<path class="st1" d="M153.8,116.1c0,4.1,3.4,7.5,7.5,7.5c4.1,0,7.5-3.4,7.5-7.5c0,0,0,0,0,0c0-4.1-3.4-7.5-7.5-7.5
		C157.1,108.6,153.8,112,153.8,116.1C153.8,116.1,153.8,116.1,153.8,116.1z"/>
	<path class="st1" d="M38.7,59.9c0,4.8,3.9,8.8,8.7,8.8s8.8-3.9,8.8-8.7c0,0,0,0,0,0c0-4.8-3.9-8.8-8.7-8.8
		C42.7,51.1,38.8,55,38.7,59.9C38.7,59.9,38.7,59.9,38.7,59.9z"/>
	<path class="st1" d="M91.2,59.9c0,4.8,3.9,8.8,8.7,8.8c4.8,0,8.8-3.9,8.8-8.7c0,0,0,0,0,0c0-4.8-3.9-8.8-8.7-8.8
		C95.2,51.1,91.3,55,91.2,59.9C91.2,59.9,91.2,59.9,91.2,59.9z"/>
	<path class="st0" d="M17.3,147.3c-1,0-2.1-0.4-3-1c-1.5-1.1-2.3-3-2-4.9l3.4-19.5C5.5,110.3,0,95.9,0,81.1C0,44.6,33.1,15,73.7,15
		c19.4,0,37.6,6.6,51.5,18.9c14,12.3,21.9,28.6,22.3,46.3c0,1.4-0.5,2.7-1.5,3.7c-1,1-2.4,1.5-3.8,1.4c-1.3-0.1-2.4-0.1-3.4-0.1
		c-28.2,0-51.2,20.1-51.2,45c0,3.4,0.5,6.9,1.4,10.3c0.4,1.4,0.1,2.9-0.6,4.1c-0.8,1.3-2.1,2-3.5,2.1c-3.6,0.5-7.3,0.8-10.9,0.8
		c-13.4,0-26.3-3.3-37.6-9.3l-16.5,8.7C18.9,147,18,147.2,17.3,147.3L17.3,147.3z M36.1,127.2c0.9,0,1.8,0.3,2.5,0.6
		c11.6,6.7,25.4,10,39.4,9.1c-0.4-2.4-0.5-4.8-0.5-7.1c0-29.9,26.6-54.3,59.6-55c-3.5-28-30.8-50-63.4-50C38.6,24.9,10,50,10,81
		c0,13,5.2,25.8,14.6,35.8c1.1,1.1,1.5,2.8,1.3,4.3l-2,12l10-5.3C34.6,127.5,35.4,127.2,36.1,127.2L36.1,127.2z"/>
</g>
</svg>
