<?xml version="1.0" encoding="iso-8859-1"?>
<!-- Uploaded to: SVG Repo, www.svgrepo.com, Generator: SVG Repo Mixer Tools -->
<!DOCTYPE svg PUBLIC "-//W3C//DTD SVG 1.1//EN" "http://www.w3.org/Graphics/SVG/1.1/DTD/svg11.dtd">
<svg version="1.1" id="Capa_1" xmlns="http://www.w3.org/2000/svg" xmlns:xlink="http://www.w3.org/1999/xlink" 
	 viewBox="0 0 426.337 426.337" xml:space="preserve">
<g>
	<rect x="25.578" y="215.003" style="fill:#CCCCCC;" width="339.848" height="200.742"/>
	<g>
		<polygon style="fill:#CCCCCC;" points="141.715,156.32 96.365,156.32 98.845,109.67 100.705,74.67 103.315,25.67 104.685,0 
			133.395,0 134.765,25.67 137.375,74.67 139.235,109.67 		"/>
		<polygon style="fill:#CCCCCC;" points="202.475,156.32 157.125,156.32 159.605,109.67 161.465,74.67 164.075,25.67 165.445,0 
			194.155,0 195.525,25.67 198.135,74.67 199.995,109.67 		"/>
	</g>
	<rect x="58.174" y="156.319" style="fill:#E6E6E6;" width="182.492" height="58.685"/>
	<g>
		<rect x="137.438" y="238.407" style="fill:#666666;" width="14.45" height="39.263"/>
		<rect x="161.693" y="238.407" style="fill:#666666;" width="14.45" height="39.263"/>
		<rect x="185.947" y="238.407" style="fill:#666666;" width="14.45" height="39.263"/>
		<rect x="210.202" y="238.407" style="fill:#666666;" width="14.45" height="39.263"/>
		<rect x="234.456" y="238.407" style="fill:#666666;" width="14.45" height="39.263"/>
		<rect x="258.711" y="238.407" style="fill:#666666;" width="14.45" height="39.263"/>
		<rect x="282.966" y="238.407" style="fill:#666666;" width="14.45" height="39.263"/>
		<rect x="307.22" y="238.407" style="fill:#666666;" width="14.45" height="39.263"/>
		<rect x="331.475" y="238.407" style="fill:#666666;" width="14.45" height="39.263"/>
	</g>
	<rect x="228.933" y="294.509" style="fill:#E6E6E6;" width="166.492" height="121.236"/>
	<rect x="322.277" y="345.506" style="fill:#666666;" width="52.666" height="70.239"/>
	<rect x="322.278" y="345.506" style="fill:#4D4D4D;" width="41.148" height="70.239"/>
	<rect x="137.438" y="294.509" style="fill:#B3B3B3;" width="91.495" height="121.236"/>
	<polygon style="fill:#EF7954;" points="195.525,25.67 164.075,25.67 165.445,0 194.155,0 	"/>
	<polygon style="fill:#EF7954;" points="199.995,109.67 159.605,109.67 161.465,74.67 198.135,74.67 	"/>
	<polygon style="fill:#B3B3B3;" points="116.665,0 116.665,156.318 96.365,156.318 104.685,0 	"/>
	<polygon style="fill:#EF7954;" points="134.765,25.67 103.315,25.67 104.685,0 133.395,0 	"/>
	<polygon style="fill:#EF7954;" points="139.235,109.67 98.845,109.67 100.705,74.67 137.375,74.67 	"/>
	<polygon style="fill:#D3674A;" points="116.665,0 116.665,25.67 103.315,25.67 104.685,0 	"/>
	<polygon style="fill:#D3674A;" points="116.665,74.67 116.665,109.67 98.845,109.67 100.715,74.67 	"/>
	<g>
		<polygon style="fill:#B3B3B3;" points="177.425,0 177.425,156.318 157.125,156.318 165.445,0 		"/>
		<polygon style="fill:#D3674A;" points="177.425,0 177.425,25.67 164.075,25.67 165.445,0 		"/>
		<polygon style="fill:#D3674A;" points="177.425,74.67 177.425,109.67 159.605,109.67 161.475,74.67 		"/>
	</g>
	<g>
		<rect x="71.92" y="175.67" style="fill:#666666;" width="14" height="39.333"/>
		<rect x="95.42" y="175.67" style="fill:#666666;" width="14" height="39.333"/>
		<rect x="118.92" y="175.67" style="fill:#666666;" width="14" height="39.333"/>
		<rect x="142.42" y="175.67" style="fill:#666666;" width="14" height="39.333"/>
		<rect x="165.92" y="175.67" style="fill:#666666;" width="14" height="39.333"/>
		<rect x="189.42" y="175.67" style="fill:#666666;" width="14" height="39.333"/>
		<rect x="212.92" y="175.67" style="fill:#666666;" width="14" height="39.333"/>
	</g>
	<g>
		<rect x="240.18" y="314.67" style="fill:#666666;" width="11" height="11"/>
		<rect x="259.18" y="314.67" style="fill:#666666;" width="11" height="11"/>
		<rect x="278.18" y="314.67" style="fill:#666666;" width="11" height="11"/>
		<rect x="297.179" y="314.67" style="fill:#666666;" width="11" height="11"/>
		<rect x="316.179" y="314.67" style="fill:#666666;" width="11" height="11"/>
		<rect x="335.179" y="314.67" style="fill:#666666;" width="11" height="11"/>
		<rect x="354.179" y="314.67" style="fill:#666666;" width="11" height="11"/>
		<rect x="373.178" y="314.67" style="fill:#666666;" width="11" height="11"/>
	</g>
	<g>
		<rect x="149.186" y="314.67" style="fill:#666666;" width="11" height="11"/>
		<rect x="168.186" y="314.67" style="fill:#666666;" width="11" height="11"/>
		<rect x="187.186" y="314.67" style="fill:#666666;" width="11" height="11"/>
		<rect x="206.185" y="314.67" style="fill:#666666;" width="11" height="11"/>
	</g>
	<g>
		<rect x="149.186" y="344.17" style="fill:#666666;" width="11" height="11"/>
		<rect x="168.186" y="344.17" style="fill:#666666;" width="11" height="11"/>
		<rect x="187.186" y="344.17" style="fill:#666666;" width="11" height="11"/>
		<rect x="206.185" y="344.17" style="fill:#666666;" width="11" height="11"/>
	</g>
	<g>
		<rect x="149.186" y="373.67" style="fill:#666666;" width="11" height="11"/>
		<rect x="168.186" y="373.67" style="fill:#666666;" width="11" height="11"/>
		<rect x="187.186" y="373.67" style="fill:#666666;" width="11" height="11"/>
		<rect x="206.185" y="373.67" style="fill:#666666;" width="11" height="11"/>
	</g>
	<rect x="288.433" y="382.286" style="fill:#666666;" width="19.895" height="33.46"/>
	<rect x="25.578" y="215.003" style="fill:#B3B3B3;" width="92.847" height="200.742"/>
	<g>
		<rect x="36.747" y="238.407" style="fill:#666666;" width="11.133" height="97.263"/>
		<rect x="56.539" y="238.407" style="fill:#666666;" width="11.133" height="97.263"/>
		<rect x="76.331" y="238.407" style="fill:#666666;" width="11.133" height="97.263"/>
		<rect x="96.123" y="238.407" style="fill:#666666;" width="11.133" height="97.263"/>
	</g>
	<rect x="82.53" y="382.286" style="fill:#666666;" width="19.895" height="33.46"/>
	<rect x="322.277" y="385.326" style="fill:#D3674A;" width="38.936" height="22.07"/>
	<polygon style="fill:#EF7954;" points="346.93,385.325 368.425,385.325 362.973,407.395 341.478,407.395 	"/>
	<circle style="fill:#808080;" cx="336.868" cy="411.57" r="4.175"/>
	<circle style="fill:#808080;" cx="354.092" cy="411.57" r="4.175"/>
	<circle style="fill:#666666;" cx="334.701" cy="411.57" r="4.175"/>
	<circle style="fill:#666666;" cx="351.925" cy="411.57" r="4.175"/>
	<path style="fill:#808080;" d="M341.763,413.262H352.2c0.787,0,1.425-0.638,1.425-1.425l0,0c0-0.787-0.638-1.425-1.425-1.425
		h-10.437c-0.787,0-1.425,0.638-1.425,1.425l0,0C340.338,412.624,340.976,413.262,341.763,413.262z"/>
	<rect x="10.245" y="415.745" style="fill:#77C67F;" width="405.847" height="10.591"/>
</g>
</svg>