<svg xmlns="http://www.w3.org/2000/svg" xmlns:xlink="http://www.w3.org/1999/xlink" version="1.1" width="256" height="256" viewBox="0 0 256 256" xml:space="preserve">
<g style="stroke: none; stroke-width: 0; stroke-dasharray: none; stroke-linecap: butt; stroke-linejoin: miter; stroke-miterlimit: 10; fill: none; fill-rule: nonzero; opacity: 1;" transform="translate(1.4065934065934016 1.4065934065934016) scale(2.81 2.81)">
	<rect x="1" y="70.14" rx="0" ry="0" width="88" height="7.82" style="stroke: none; stroke-width: 1; stroke-dasharray: none; stroke-linecap: butt; stroke-linejoin: miter; stroke-miterlimit: 10; fill: rgb(205,141,81); fill-rule: nonzero; opacity: 1;" transform=" matrix(1 0 0 1 0 0) "/>
	<path d="M 89 78.957 H 1 c -0.552 0 -1 -0.447 -1 -1 v -7.819 c 0 -0.553 0.448 -1 1 -1 h 88 c 0.553 0 1 0.447 1 1 v 7.819 C 90 78.51 89.553 78.957 89 78.957 z M 2 76.957 h 86 v -5.819 H 2 V 76.957 z" style="stroke: none; stroke-width: 1; stroke-dasharray: none; stroke-linecap: butt; stroke-linejoin: miter; stroke-miterlimit: 10; fill: rgb(0,0,0); fill-rule: nonzero; opacity: 1;" transform=" matrix(1 0 0 1 0 0) " stroke-linecap="round"/>
	<polygon points="45,70.14 13.52,70.14 13.52,37.84 29.26,37.84 45,37.84 " style="stroke: none; stroke-width: 1; stroke-dasharray: none; stroke-linecap: butt; stroke-linejoin: miter; stroke-miterlimit: 10; fill: rgb(248,188,30); fill-rule: nonzero; opacity: 1;" transform="  matrix(1 0 0 1 0 0) "/>
	<path d="M 38.458 37.844 V 53.53 c 0 5.559 -4.507 10.066 -10.066 10.066 H 13.518 v 6.542 H 45 V 37.844 H 38.458 z" style="stroke: none; stroke-width: 1; stroke-dasharray: none; stroke-linecap: butt; stroke-linejoin: miter; stroke-miterlimit: 10; fill: rgb(240,165,33); fill-rule: nonzero; opacity: 1;" transform=" matrix(1 0 0 1 0 0) " stroke-linecap="round"/>
	<path d="M 45 71.138 H 13.519 c -0.552 0 -1 -0.447 -1 -1 V 37.844 c 0 -0.552 0.448 -1 1 -1 H 45 c 0.552 0 1 0.448 1 1 v 32.293 C 46 70.69 45.552 71.138 45 71.138 z M 14.519 69.138 H 44 V 38.844 H 14.519 V 69.138 z" style="stroke: none; stroke-width: 1; stroke-dasharray: none; stroke-linecap: butt; stroke-linejoin: miter; stroke-miterlimit: 10; fill: rgb(0,0,0); fill-rule: nonzero; opacity: 1;" transform=" matrix(1 0 0 1 0 0) " stroke-linecap="round"/>
	<rect x="25.17" y="37.84" rx="0" ry="0" width="8.18" height="13.71" style="stroke: none; stroke-width: 1; stroke-dasharray: none; stroke-linecap: butt; stroke-linejoin: miter; stroke-miterlimit: 10; fill: rgb(240,165,33); fill-rule: nonzero; opacity: 1;" transform=" matrix(1 0 0 1 0 0) "/>
	<path d="M 33.351 52.555 h -8.183 c -0.552 0 -1 -0.447 -1 -1 v -13.71 c 0 -0.552 0.448 -1 1 -1 h 8.183 c 0.552 0 1 0.448 1 1 v 13.71 C 34.351 52.107 33.903 52.555 33.351 52.555 z M 26.168 50.555 h 6.183 v -11.71 h -6.183 V 50.555 z" style="stroke: none; stroke-width: 1; stroke-dasharray: none; stroke-linecap: butt; stroke-linejoin: miter; stroke-miterlimit: 10; fill: rgb(0,0,0); fill-rule: nonzero; opacity: 1;" transform=" matrix(1 0 0 1 0 0) " stroke-linecap="round"/>
	<polygon points="76.48,70.14 45,70.14 45,37.84 60.74,37.84 76.48,37.84 " style="stroke: none; stroke-width: 1; stroke-dasharray: none; stroke-linecap: butt; stroke-linejoin: miter; stroke-miterlimit: 10; fill: rgb(248,188,30); fill-rule: nonzero; opacity: 1;" transform="  matrix(1 0 0 1 0 0) "/>
	<path d="M 69.94 37.844 V 53.53 c 0 5.559 -4.507 10.066 -10.066 10.066 H 45 v 6.542 h 31.482 V 37.844 H 69.94 z" style="stroke: none; stroke-width: 1; stroke-dasharray: none; stroke-linecap: butt; stroke-linejoin: miter; stroke-miterlimit: 10; fill: rgb(240,165,33); fill-rule: nonzero; opacity: 1;" transform=" matrix(1 0 0 1 0 0) " stroke-linecap="round"/>
	<path d="M 76.481 71.138 H 45 c -0.552 0 -1 -0.447 -1 -1 V 37.844 c 0 -0.552 0.448 -1 1 -1 h 31.481 c 0.553 0 1 0.448 1 1 v 32.293 C 77.481 70.69 77.034 71.138 76.481 71.138 z M 46 69.138 h 29.481 V 38.844 H 46 V 69.138 z" style="stroke: none; stroke-width: 1; stroke-dasharray: none; stroke-linecap: butt; stroke-linejoin: miter; stroke-miterlimit: 10; fill: rgb(0,0,0); fill-rule: nonzero; opacity: 1;" transform=" matrix(1 0 0 1 0 0) " stroke-linecap="round"/>
	<rect x="56.65" y="37.84" rx="0" ry="0" width="8.18" height="13.71" style="stroke: none; stroke-width: 1; stroke-dasharray: none; stroke-linecap: butt; stroke-linejoin: miter; stroke-miterlimit: 10; fill: rgb(240,165,33); fill-rule: nonzero; opacity: 1;" transform=" matrix(1 0 0 1 0 0) "/>
	<path d="M 64.832 52.555 h -8.183 c -0.553 0 -1 -0.447 -1 -1 v -13.71 c 0 -0.552 0.447 -1 1 -1 h 8.183 c 0.553 0 1 0.448 1 1 v 13.71 C 65.832 52.107 65.385 52.555 64.832 52.555 z M 57.649 50.555 h 6.183 v -11.71 h -6.183 V 50.555 z" style="stroke: none; stroke-width: 1; stroke-dasharray: none; stroke-linecap: butt; stroke-linejoin: miter; stroke-miterlimit: 10; fill: rgb(0,0,0); fill-rule: nonzero; opacity: 1;" transform=" matrix(1 0 0 1 0 0) " stroke-linecap="round"/>
	<polygon points="60.74,37.84 29.26,37.84 29.26,5.55 45,5.55 60.74,5.55 " style="stroke: none; stroke-width: 1; stroke-dasharray: none; stroke-linecap: butt; stroke-linejoin: miter; stroke-miterlimit: 10; fill: rgb(248,188,30); fill-rule: nonzero; opacity: 1;" transform="  matrix(1 0 0 1 0 0) "/>
	<path d="M 54.199 5.551 v 15.685 c 0 5.559 -4.507 10.066 -10.066 10.066 H 29.259 v 6.542 h 31.482 V 5.551 H 54.199 z" style="stroke: none; stroke-width: 1; stroke-dasharray: none; stroke-linecap: butt; stroke-linejoin: miter; stroke-miterlimit: 10; fill: rgb(240,165,33); fill-rule: nonzero; opacity: 1;" transform=" matrix(1 0 0 1 0 0) " stroke-linecap="round"/>
	<path d="M 60.741 38.844 H 29.259 c -0.552 0 -1 -0.448 -1 -1 V 5.551 c 0 -0.552 0.448 -1 1 -1 h 31.482 c 0.553 0 1 0.448 1 1 v 32.293 C 61.741 38.396 61.294 38.844 60.741 38.844 z M 30.259 36.844 h 29.482 V 6.551 H 30.259 V 36.844 z" style="stroke: none; stroke-width: 1; stroke-dasharray: none; stroke-linecap: butt; stroke-linejoin: miter; stroke-miterlimit: 10; fill: rgb(0,0,0); fill-rule: nonzero; opacity: 1;" transform=" matrix(1 0 0 1 0 0) " stroke-linecap="round"/>
	<rect x="40.91" y="5.55" rx="0" ry="0" width="8.18" height="13.71" style="stroke: none; stroke-width: 1; stroke-dasharray: none; stroke-linecap: butt; stroke-linejoin: miter; stroke-miterlimit: 10; fill: rgb(240,165,33); fill-rule: nonzero; opacity: 1;" transform=" matrix(1 0 0 1 0 0) "/>
	<path d="M 49.092 20.262 h -8.183 c -0.552 0 -1 -0.448 -1 -1 V 5.551 c 0 -0.552 0.448 -1 1 -1 h 8.183 c 0.553 0 1 0.448 1 1 v 13.711 C 50.092 19.814 49.645 20.262 49.092 20.262 z M 41.909 18.262 h 6.183 V 6.551 h -6.183 V 18.262 z" style="stroke: none; stroke-width: 1; stroke-dasharray: none; stroke-linecap: butt; stroke-linejoin: miter; stroke-miterlimit: 10; fill: rgb(0,0,0); fill-rule: nonzero; opacity: 1;" transform=" matrix(1 0 0 1 0 0) " stroke-linecap="round"/>
	<rect x="9.85" y="77.96" rx="0" ry="0" width="14.59" height="6.49" style="stroke: none; stroke-width: 1; stroke-dasharray: none; stroke-linecap: butt; stroke-linejoin: miter; stroke-miterlimit: 10; fill: rgb(188,126,75); fill-rule: nonzero; opacity: 1;" transform=" matrix(1 0 0 1 0 0) "/>
	<path d="M 24.438 85.449 H 9.847 c -0.552 0 -1 -0.447 -1 -1 v -6.492 c 0 -0.553 0.448 -1 1 -1 h 14.591 c 0.552 0 1 0.447 1 1 v 6.492 C 25.438 85.002 24.99 85.449 24.438 85.449 z M 10.847 83.449 h 12.591 v -4.492 H 10.847 V 83.449 z" style="stroke: none; stroke-width: 1; stroke-dasharray: none; stroke-linecap: butt; stroke-linejoin: miter; stroke-miterlimit: 10; fill: rgb(0,0,0); fill-rule: nonzero; opacity: 1;" transform=" matrix(1 0 0 1 0 0) " stroke-linecap="round"/>
	<rect x="65.56" y="77.96" rx="0" ry="0" width="14.59" height="6.49" style="stroke: none; stroke-width: 1; stroke-dasharray: none; stroke-linecap: butt; stroke-linejoin: miter; stroke-miterlimit: 10; fill: rgb(188,126,75); fill-rule: nonzero; opacity: 1;" transform=" matrix(1 0 0 1 0 0) "/>
	<path d="M 80.153 85.449 H 65.563 c -0.553 0 -1 -0.447 -1 -1 v -6.492 c 0 -0.553 0.447 -1 1 -1 h 14.591 c 0.553 0 1 0.447 1 1 v 6.492 C 81.153 85.002 80.706 85.449 80.153 85.449 z M 66.563 83.449 h 12.591 v -4.492 H 66.563 V 83.449 z" style="stroke: none; stroke-width: 1; stroke-dasharray: none; stroke-linecap: butt; stroke-linejoin: miter; stroke-miterlimit: 10; fill: rgb(0,0,0); fill-rule: nonzero; opacity: 1;" transform=" matrix(1 0 0 1 0 0) " stroke-linecap="round"/>
</g>
</svg>