<?xml version="1.0" encoding="iso-8859-1"?>
<!-- Uploaded to: SVG Repo, www.svgrepo.com, Generator: SVG Repo Mixer Tools -->
<svg height="800px" width="800px" version="1.1" id="Layer_1" xmlns="http://www.w3.org/2000/svg" xmlns:xlink="http://www.w3.org/1999/xlink" 
	 viewBox="0 0 512.033 512.033" xml:space="preserve">
<g transform="translate(0 1)">
	<path style="fill:#FFA800;" d="M93.013,238.803c0.853,0,1.707-0.853,2.56-0.853c1.707-0.853,3.413-1.707,5.12-1.707
		c1.707-0.853,2.56-0.853,4.267-1.707c0.853,0,1.707-0.853,3.413-0.853c1.707-0.853,4.267-0.853,5.973-1.707
		c0.853,0,1.707,0,1.707-0.853c2.56-0.853,5.12-0.853,6.827-0.853c0.853,0,0.853,0,1.707,0c2.56,0,5.12,0,6.827,0
		c0.853,0,0.853,0,1.707,0c2.56,0,5.12,0,6.827,0.853h0.853c2.56,0.853,5.12,0.853,6.827,2.56c0,0,0,0,0.853,0
		c2.56,0.853,4.267,2.56,6.827,4.267c7.68,5.973,16.213,10.24,25.6,12.8s18.773,4.267,28.16,4.267h33.28
		c13.653,0,26.453,4.267,37.547,11.093c6.827,4.267,11.947,10.24,17.067,17.067c5.973,8.533,7.68,19.627,0,32.427
		c21.333-0.853,59.733-2.56,70.827-8.533l74.24-45.227V67.283H85.333V243.07C87.893,241.363,90.453,240.51,93.013,238.803"/>
	<path style="fill:#FFE100;" d="M101.547,238.803c0.853,0,1.707-0.853,2.56-0.853c1.707-0.853,3.413-1.707,5.12-1.707
		c1.707-0.853,2.56-0.853,4.267-1.707c0.853,0,1.707-0.853,3.413-0.853c1.707-0.853,4.267-0.853,5.973-1.707
		c0.853,0,1.707,0,1.707-0.853c2.56-0.853,5.12-0.853,6.827-0.853c0.853,0,0.853,0,1.707,0c2.56,0,5.12,0,6.827,0
		c0.853,0,0.853,0,1.707,0c2.56,0,5.12,0,6.827,0.853h0.853c2.56,0.853,5.12,0.853,6.827,2.56c0,0,0,0,0.853,0
		c2.56,0.853,4.267,2.56,6.827,4.267c7.68,5.973,16.213,10.24,25.6,12.8s18.773,4.267,28.16,4.267h7.68
		c13.653,0,26.453,4.267,37.547,11.093c6.827,4.267,11.947,10.24,17.067,17.067c5.973,8.533,7.68,19.627,0,32.427
		c21.333-0.853,59.733-2.56,70.827-8.533l65.707-45.227V67.283H93.867V243.07C96.427,241.363,98.987,240.51,101.547,238.803"/>
	<path style="fill:#FFA800;" d="M85.333,67.283L245.76,209.79c10.24,9.387,27.307,9.387,38.4,0L443.733,67.283H85.333z"/>
	<g>
		<path style="fill:#FFE100;" d="M59.733,434.217H179.2c17.067,0,76.8-1.707,93.867-4.267l68.267-17.067
			c3.413,0,7.68-0.853,11.093-0.853l0,0c9.387-0.853,17.067-5.973,23.893-11.947L506.027,299.39c5.973-5.12,7.68-12.8,4.267-19.627
			c-0.853,0.853-2.56,1.707-4.267,2.56L376.32,383.017c-6.827,5.973-14.507,11.093-23.893,11.947l0,0
			c-3.413,0.853-6.827,0.853-11.093,0.853l-68.267,17.067c-17.067,2.56-76.8,4.267-93.867,4.267H68.267"/>
		<polygon style="fill:#FFE100;" points="51.2,442.75 25.6,442.75 25.6,306.217 25.6,272.083 25.6,255.017 25.6,237.95 51.2,237.95 
					"/>
	</g>
	<path style="fill:#FFA800;" d="M51.2,410.323h119.467c17.067,0,76.8-1.707,93.867-4.267L332.8,388.99
		c3.413,0,7.68-0.853,11.093-0.853l0,0c9.387-0.853,17.067-5.973,23.893-11.947l129.707-100.693c5.973-5.12,7.68-12.8,4.267-19.627
		c-0.853,0.853-2.56,1.707-4.267,2.56L367.787,359.123c-6.827,5.973-14.507,11.093-23.893,11.947l0,0
		c-3.413,0.853-6.827,0.853-11.093,0.853l-68.267,17.067c-17.067,2.56-76.8,4.267-93.867,4.267H59.733"/>
	<path style="fill:#FFE100;" d="M494.933,255.017c-11.093-14.507-13.653-11.093-51.2,8.533l-68.267,42.667
		c-11.947,5.973-47.787,16.213-69.12,17.067c1.707-8.533,5.973-22.187-7.68-42.667c-11.947-17.92-41.813-25.6-63.147-25.6h-33.28
		c-19.627,0-24.747,3.413-40.107-8.533C126.293,219.176,51.2,263.55,51.2,263.55v136.533h110.933c17.067,0,76.8-1.707,93.867-4.267
		l68.267-17.067c3.413,0,7.68-0.853,11.093-0.853l0,0c9.387-0.853,17.067-5.973,23.893-11.947L488.96,265.257
		C495.787,260.137,500.053,262.697,494.933,255.017"/>
	<path d="M59.733,451.283H0v-128c0-5.12,3.413-8.533,8.533-8.533s8.533,3.413,8.533,8.533v110.933h25.6V246.483h-25.6v8.533
		c0,5.12-3.413,8.533-8.533,8.533S0,260.137,0,255.017v-25.6h59.733V451.283z"/>
	<path d="M17.067,289.15c0-5.12-3.413-8.533-8.533-8.533S0,284.03,0,289.15c0,5.12,3.413,8.533,8.533,8.533
		S17.067,294.27,17.067,289.15"/>
	<path d="M170.667,425.683h-128v-166.4l3.413-2.56c3.413-2.56,75.093-57.173,116.053-26.453c13.653,10.24,30.72,15.36,48.64,15.36
		h33.28c24.747,0,47.787,11.947,61.44,31.573c7.68,11.093,9.387,20.48,5.12,28.16c21.333,0,44.373-1.707,54.613-7.68l73.387-45.227
		c37.547-19.627,52.907-19.627,68.267,0.853c7.68,10.24,5.973,25.6-4.267,34.133l0,0l-128.853,102.4
		c-8.533,7.68-17.92,12.8-28.16,14.507c-3.413,0.853-7.68,1.707-11.947,1.707L222.72,423.123
		C205.653,423.977,187.733,425.683,170.667,425.683z M59.733,408.617h110.933c16.213,0,33.28-0.853,49.493-3.413l112.64-17.067
		c3.413,0,5.973,0,9.387-0.853c7.68-0.853,14.507-4.267,19.627-10.24l0.853-0.853l129.707-100.693
		c3.413-2.56,3.413-7.68,1.707-10.24c-6.827-10.24-10.24-14.507-46.08,3.413l-73.387,45.227
		c-19.627,10.24-57.173,11.093-97.28,10.24c-1.707,0-3.413,0-4.267,0c-5.12,0-8.533,0-11.093,0l0.853-17.067c2.56,0,5.973,0,9.387,0
		c11.093-0.853,21.333-2.56,23.893-6.827c0.853-1.707,0-6.827-3.413-11.947c-11.093-16.213-29.013-24.747-48.64-24.747h-33.28
		c-21.333,0-42.667-6.827-58.88-18.773c-23.893-18.773-71.68,8.533-92.16,23.04V408.617z M497.493,282.323L497.493,282.323
		L497.493,282.323z"/>
	<path d="M59.733,451.283H0V229.417h59.733V451.283z M17.067,434.217h25.6V246.483h-25.6V434.217z"/>
	<path d="M145.067,348.883c-5.12,0-8.533-3.413-8.533-8.533c0-21.333,16.213-34.133,42.667-34.133h82.773
		c5.12,0,8.533,3.413,8.533,8.533s-3.413,8.533-8.533,8.533H179.2c-25.6,0-25.6,12.8-25.6,17.067
		C153.6,345.47,150.187,348.883,145.067,348.883z"/>
	<path d="M264.533,225.15c-8.533,0-17.92-3.413-24.747-9.387L79.36,73.257c-2.56-1.707-3.413-5.973-1.707-9.387
		c0.853-2.56,4.267-5.12,7.68-5.12h358.4c3.413,0,6.827,2.56,7.68,5.12c0.853,3.413,0,6.827-2.56,9.387L289.28,215.763
		C282.453,222.59,273.067,225.15,264.533,225.15z M107.52,75.817l143.36,127.147c7.68,6.827,19.627,6.827,26.453,0L421.547,75.817
		H107.52z"/>
	<path d="M179.2,255.017c-2.56,0-5.12-0.853-6.827-3.413c-3.413-3.413-2.56-9.387,0.853-11.947l51.2-42.667
		c3.413-3.413,9.387-2.56,11.947,0.853c3.413,3.413,2.56,9.387-0.853,11.947l-51.2,42.667
		C183.467,254.163,180.907,255.017,179.2,255.017z"/>
	<path d="M401.067,289.15c-1.707,0-3.413-0.853-5.12-1.707l-102.4-76.8c-3.413-2.56-4.267-8.533-1.707-11.947
		s8.533-4.267,11.947-1.707l102.4,76.8c3.413,2.56,4.267,8.533,1.707,11.947C406.187,288.297,403.627,289.15,401.067,289.15z"/>
	<path d="M298.667,323.283c-3.413,0-5.973-1.707-7.68-4.267s-1.707-5.973,0-8.533c5.12-7.68,5.12-15.36,0-23.04
		c-3.413-5.973-8.533-10.24-14.507-14.507c-9.387-5.973-20.48-9.387-32.427-9.387h-33.28c-11.093,0-21.333-1.707-30.72-5.12
		c-10.24-3.413-19.627-8.533-28.16-14.507c-1.707-0.853-3.413-1.707-5.12-3.413h-0.853c-1.707-0.853-3.413-0.853-5.12-1.707
		l0.853-8.533l-1.707,8.533c-1.707,0-4.267-0.853-5.973-0.853h-0.853c-1.707,0-4.267,0-5.973,0h-1.707
		c-2.56,0-4.267,0.853-6.827,0.853h-0.853c-2.56,0.853-4.267,0.853-6.827,1.707l-2.56,0.853c-1.707,0.853-2.56,0.853-4.267,1.707
		c-1.707,0.853-3.413,0.853-5.12,1.707l-2.56,1.707c-2.56,0.853-5.12,2.56-7.68,3.413c-2.56,1.707-5.973,0.853-8.533,0
		c-1.707-1.707-3.413-4.267-3.413-6.827V67.283c0-5.12,3.413-8.533,8.533-8.533h358.4c5.12,0,8.533,3.413,8.533,8.533V260.99
		c0,2.56-1.707,5.973-4.267,7.68l-74.24,45.227C360.96,320.723,325.973,322.43,298.667,323.283L298.667,323.283z M131.413,220.883
		c0.853,0,0.853,0,1.707,0h1.707c2.56,0,5.973,0.853,8.533,0.853h0.853c3.413,0.853,5.973,1.707,8.533,2.56c0,0,0.853,0,0.853,0.853
		c3.413,1.707,5.973,3.413,8.533,5.12c6.827,5.12,14.507,9.387,23.04,11.947c8.533,2.56,17.067,4.267,25.6,4.267h33.28
		c15.36,0,29.867,4.267,42.667,12.8c7.68,5.12,13.653,11.947,18.773,18.773c5.973,8.533,7.68,18.773,5.973,28.16
		c27.307-0.853,47.787-4.267,54.613-7.68l69.12-42.667V75.817H93.867v153.6c1.707-0.853,2.56-0.853,4.267-1.707
		s3.413-0.853,5.12-1.707l3.413-0.853c2.56-0.853,4.267-1.707,6.827-1.707l2.56-0.853c2.56-0.853,5.12-0.853,7.68-0.853h1.707
		C127.147,220.883,129.707,220.883,131.413,220.883z"/>
</g>
</svg>