<?xml version="1.0" encoding="utf-8"?>
<!-- Generator: Adobe Illustrator 25.0.0, SVG Export Plug-In . SVG Version: 6.00 Build 0)  -->
<svg version="1.1" id="图层_1" xmlns="http://www.w3.org/2000/svg" xmlns:xlink="http://www.w3.org/1999/xlink" x="0px" y="0px"
	 viewBox="0 0 50 50" style="enable-background:new 0 0 50 50;" xml:space="preserve">
<style type="text/css">
	.st0{fill:#FFFFFF;}
	.st1{fill:#F8B500;}
</style>
<g>
	<path class="st0" d="M0,44.9c0,1,0.8,1.8,1.8,1.8h46.5c1,0,1.7-0.9,1.7-1.8c0-0.9-0.8-1.7-1.7-1.7H1.8C0.8,43.1,0,43.9,0,44.9z
		 M29.2,40.2c0.1,1,0.9,1.7,1.9,1.7c0,0,0,0,0,0c1-0.1,1.7-0.9,1.7-1.9c0,0,0,0,0,0L30.4,5c-0.1-0.9-0.8-1.7-1.8-1.7H8.8
		C7.9,3.3,7.1,4.1,7,5L4.7,40c-0.1,1,0.7,1.8,1.7,1.9c0,0,0,0,0,0c1,0.1,1.8-0.7,1.9-1.7l2.2-33.3H27L29.2,40.2L29.2,40.2z
		 M31.8,11.4c0,1,0.8,1.8,1.8,1.8H40l1.8,27c0.1,1,0.9,1.7,1.9,1.7c0,0,0,0,0,0c1-0.1,1.7-0.9,1.7-1.9c0,0,0,0,0,0l-1.9-28.7
		c-0.1-0.9-0.8-1.7-1.8-1.7h-8.1C32.6,9.6,31.8,10.4,31.8,11.4L31.8,11.4z"/>
	<path class="st1" d="M14.7,17.8h7.2c1,0,1.7-0.8,1.7-1.8c0-1-0.8-1.8-1.7-1.8h-7.2c-1,0-1.7,0.8-1.7,1.8
		C12.9,17,13.7,17.8,14.7,17.8z"/>
	<path class="st0" d="M14.3,24.8h7.9c1,0,1.7-0.8,1.7-1.8c0-1-0.8-1.8-1.7-1.8h-7.9c-1,0-1.7,0.8-1.7,1.8
		C12.6,24,13.3,24.8,14.3,24.8z"/>
	<path class="st0" d="M13.9,31.8h8.7c1,0,1.7-0.8,1.7-1.8c0-1-0.8-1.8-1.7-1.8h-8.7c-1,0-1.7,0.8-1.7,1.8C12.2,31,13,31.8,13.9,31.8
		L13.9,31.8z"/>
</g>
</svg>
