<?xml version="1.0" encoding="utf-8"?>
<!-- Generator: Adobe Illustrator 25.0.0, SVG Export Plug-In . SVG Version: 6.00 Build 0)  -->
<svg version="1.1" id="图层_1" xmlns="http://www.w3.org/2000/svg" xmlns:xlink="http://www.w3.org/1999/xlink" x="0px" y="0px"
	 viewBox="0 0 50 50" style="enable-background:new 0 0 50 50;" xml:space="preserve">
<style type="text/css">
	.st0{fill:#FFFFFF;}
	.st1{fill:#F8B500;}
</style>
<g>
	<path class="st0" d="M44.6,11.3c0-0.4-0.1-0.5-0.2-0.7c-0.2-0.3-0.5-0.5-1.1-0.8L22.7,0.1L22.3,0c-0.5-0.1-1,0-1.4,0.3l-20,10.6
		l0,0c-0.2,0-0.3,0.2-0.3,0.4l-0.1,0l-0.1,0.3l-0.1,0.1c-0.1,0.1-0.2,0.4-0.2,0.6v23.1L0,35.7c-0.1,0.6,0.2,1.1,0.7,1.5l20.3,12.6
		l0.3,0.1c0.2,0.1,0.4,0.1,0.6,0.1l0.5,0c0.2,0,0.3-0.1,0.5-0.2l0.1,0.1l7.1-4.1l0.2-0.2c0.5-0.5,0.7-1.3,0.4-1.8
		c-0.2-0.8-1-1-1.8-0.6l-5,3v-7.2l0.2-14.6L42,14v1.2l-0.2,2.6l0,0.3c0.1,0.7,0.7,1.3,1.4,1.3c0.8,0,1.4-0.8,1.4-1.6L44.6,11.3z
		 M20.7,45.8L3,34.9l0.1-20.2L8.8,18l11.9,6.8L20.7,45.8z M33.5,15.5L21.8,22L4.5,12.3L10.7,9l11.4-5.8v0l18,8.6L33.5,15.5z"/>
	<path class="st1" d="M18.1,27.1l-9.8-5.8L8,21.1c-0.6-0.3-1.2-0.1-1.6,0.5l-0.1,0.2l-0.2,0.3c-0.4,0.7-0.1,1.6,0.6,2l9.9,5.8
		l0.3,0.1c0.2,0.1,0.4,0.1,0.6,0.1c0.6,0,1.1-0.3,1.4-0.8C19.1,28.5,18.9,27.5,18.1,27.1z"/>
	<path class="st0" d="M50,34.3c0-0.3-0.2-0.5-0.4-0.7L48,32.1l0-0.4l0-0.2l1.6-1.5l0.2-0.2c0.2-0.3,0.3-0.7,0.2-1
		c-0.5-1.8-1.5-3.4-2.8-4.7c-0.2-0.2-0.6-0.4-0.9-0.4l-0.2,0l-0.1,0l-2.2,0.6l-0.2-0.1l-0.3-0.1l-0.6-2.1l-0.1-0.3
		c-0.2-0.3-0.5-0.6-0.8-0.7c-0.9-0.2-1.8-0.3-2.8-0.3c-0.9,0-1.9,0.1-2.8,0.3L36,21.3l-0.2,0.1c-0.2,0.2-0.4,0.4-0.4,0.7l-0.6,2.1
		l-0.3,0.1l-0.2,0.1l-2.1-0.5l-0.2,0l-0.2,0c-0.3,0-0.7,0.1-0.9,0.4c-1.3,1.3-2.3,2.9-2.8,4.7l0,0.3l0,0.3c0,0.3,0.2,0.5,0.4,0.7
		l1.6,1.5l0,0.4l0,0.2l-1.6,1.5l-0.2,0.2c-0.2,0.3-0.3,0.7-0.2,1c0.5,1.8,1.5,3.4,2.8,4.7c0.2,0.2,0.6,0.4,0.9,0.4l0.2,0l0.1,0
		l2.2-0.6l0.2,0.1l0.3,0.1l0.6,2.1l0.1,0.3c0.2,0.3,0.5,0.6,0.8,0.7c0.9,0.2,1.8,0.3,2.8,0.3c0.9,0,1.9-0.1,2.8-0.3l0.3-0.1l0.2-0.1
		c0.2-0.2,0.4-0.4,0.4-0.7l0.6-2.1l0.3-0.1l0.2-0.1l2.1,0.6l0.2,0l0.2,0c0.3,0,0.7-0.1,0.9-0.4c1.3-1.3,2.3-2.9,2.8-4.7l0-0.3
		L50,34.3z M47.1,35.2c-0.3,0.6-0.6,1.2-1,1.7l-0.2,0.3l-2.3-0.6l-0.4,0.1L42.5,37l-0.3,0.2l-0.3,0.2l-0.6,0.3L41,38l-0.6,2.2
		l-0.3,0c-0.4,0-0.8,0.1-1.2,0.1l-0.6,0l-0.6-0.1l-0.3,0L37,38l-0.3-0.3l-0.6-0.3l-0.3-0.2L35.4,37l-0.6-0.4l-0.4-0.1l-2.3,0.6
		l-0.2-0.3c-0.4-0.5-0.8-1.1-1-1.7l-0.1-0.3l1.6-1.6l0.2-0.4l-0.1-1l0.1-1l-0.2-0.4l-1.6-1.6l0.1-0.3c0.3-0.6,0.6-1.2,1-1.7l0.2-0.3
		l2.3,0.6l0.4-0.1l0.6-0.4l0.3-0.2l0.3-0.2l0.6-0.3l0.3-0.3l0.6-2.2l0.3,0c0.4,0,0.8-0.1,1.2-0.1l0.6,0l0.6,0.1l0.3,0l0.6,2.2
		l0.3,0.3l0.6,0.3l0.3,0.2l0.3,0.2l0.6,0.4l0.4,0.1l2.3-0.6l0.2,0.3c0.4,0.5,0.8,1.1,1,1.7l0.1,0.3l-1.6,1.6l-0.2,0.4l0.1,1l-0.1,1
		l0.2,0.4l1.6,1.6L47.1,35.2z"/>
	<path class="st0" d="M39,27.6L39,27.6c-2.4,0-4.4,1.9-4.4,4.3c0,2.4,2,4.3,4.4,4.3c2.4,0,4.4-1.9,4.4-4.3
		C43.4,29.5,41.4,27.6,39,27.6z M39,33.6c-1,0-1.8-0.8-1.8-1.7c0-0.9,0.8-1.7,1.8-1.7s1.8,0.8,1.8,1.7S40,33.6,39,33.6z"/>
</g>
</svg>
