<?xml version="1.0" encoding="utf-8"?>
<!-- Generator: Adobe Illustrator 25.0.0, SVG Export Plug-In . SVG Version: 6.00 Build 0)  -->
<svg version="1.1" id="图层_1" xmlns="http://www.w3.org/2000/svg" xmlns:xlink="http://www.w3.org/1999/xlink" x="0px" y="0px"
	 viewBox="0 0 50 50" style="enable-background:new 0 0 50 50;" xml:space="preserve">
<style type="text/css">
	.st0{fill:#F8B500;}
	.st1{fill:#FFFFFF;}
</style>
<g>
	<path class="st0" d="M47.9,2c-0.3-0.5-0.8-0.8-1.4-0.8h-9.1c-0.8,0-1.5,0.7-1.5,1.5s0.7,1.5,1.5,1.5h2.7L14.4,17.5L3.8,13.9
		C3,13.7,2.2,14.2,2,15c-0.2,0.8,0.3,1.6,1.1,1.8l11.1,3.7c0.4,0.1,0.7,0,1-0.1L47.2,4C48,3.6,48.3,2.7,47.9,2z"/>
	<g>
		<path class="st1" d="M46.8,10.1c-0.5-0.3-1.2-0.3-1.7-0.1l-8.4,4.2c-0.6,0.3-1,0.9-1,1.6v23c0,1,0.8,1.7,1.7,1.7h8.4
			c1,0,1.7-0.8,1.7-1.7V11.6C47.6,11,47.3,10.4,46.8,10.1z M45.1,37.9h-6.7V16l6.7-3V37.9z"/>
		<path class="st1" d="M29.2,18.2c-0.3,0-0.5,0.1-0.8,0.2L20,22.6c-0.6,0.3-1,0.9-1,1.6v14.6c0,1,0.8,1.7,1.7,1.7h8.4
			c1,0,1.7-0.8,1.7-1.7V20C30.9,19,30.1,18.2,29.2,18.2z M28.3,37.9h-6.7V24.3l6.7-3V37.9z"/>
		<path class="st1" d="M12.9,26.6l-8.4-2.1c-0.5-0.1-1.1,0-1.5,0.3c-0.4,0.3-0.7,0.8-0.7,1.4v12.5c0,1,0.8,1.7,1.7,1.7h8.4
			c1,0,1.7-0.8,1.7-1.7V28.3C14.2,27.5,13.7,26.8,12.9,26.6z M11.6,37.9H4.9V27.6l6.7,1.2V37.9z"/>
	</g>
	<path class="st1" d="M1,47.2c0-0.9,0.8-1.7,1.7-1.7h44.6c0.9,0,1.7,0.8,1.7,1.7c0,0.9-0.8,1.7-1.7,1.7H2.7C1.8,48.9,1,48.1,1,47.2z
		"/>
</g>
</svg>
