<?xml version="1.0" encoding="utf-8"?>
<!-- Generator: Adobe Illustrator 25.0.0, SVG Export Plug-In . SVG Version: 6.00 Build 0)  -->
<svg version="1.1" id="图层_1" xmlns="http://www.w3.org/2000/svg" xmlns:xlink="http://www.w3.org/1999/xlink" x="0px" y="0px"
	 viewBox="0 0 50 50" style="enable-background:new 0 0 50 50;" xml:space="preserve">
<style type="text/css">
	.st0{fill:#F8B500;}
	.st1{fill:#FFFFFF;}
</style>
<g>
	<path class="st0" d="M10,9.7c-1,0-1.6,0.7-1.6,1.6c0,1,0.7,1.6,1.6,1.6h24.2c1,0,1.6-0.7,1.6-1.6c0-1-0.7-1.6-1.6-1.6
		C34.2,9.7,10,9.7,10,9.7z"/>
	<path class="st1" d="M4.3,43.9V5.2c0-1,1-2,2-2h37c0.7,0,1.3,1,1.3,2v27h3.3v-27c0-3.4-1.8-5.2-3.6-5.2H5.6C3.2,0,1.1,2.1,1.1,4.5
		v40.1c0,2,2.4,4.5,5.2,4.5h12.5v-3.3H6.3C5.4,45.9,4.3,44.9,4.3,43.9z"/>
	<path class="st1" d="M17.2,29H10c-1,0-1.6,0.7-1.6,1.6S9,32.2,10,32.2h7.3c1,0,1.6-0.7,1.6-1.6S18.2,29,17.2,29z M48.7,43.8
		l-6-10.2c0.8-1.7,1.2-3.1,1.2-4.6c0-5.2-4.2-9.3-9.3-9.3s-9.3,4.2-9.3,9.3c0,1.5,0.5,2.9,0.9,4.3l-5.6,11.1c-0.3,0.7-0.1,1.6,0.6,2
		c0.3,0.1,0.5,0.2,0.8,0.1l3.8-0.5l2,3.3c0.2,0.3,0.5,0.6,0.9,0.6c0.1,0,0.2,0,0.3,0c0.3,0,0.5-0.1,0.8-0.2c0.2-0.1,0.4-0.3,0.5-0.6
		l4.4-8.3l4.6,8.2c0.2,0.3,0.5,0.6,0.9,0.7c0.4,0.1,0.8,0.1,1.1-0.1c0.3-0.2,0.5-0.4,0.6-0.7l1.4-3.2l3.8,0.2c0.8,0,1.5-0.6,1.5-1.4
		C48.9,44.3,48.8,44,48.7,43.8L48.7,43.8z M32.9,38.2l-3.8,7.3l-1.7-2.7l-3.1,0.4l3.9-7.5C29.9,37.1,31.3,37.9,32.9,38.2z
		 M41.1,29.2c0,1.7-0.7,3.4-1.8,4.5c-1.2,1.2-2.8,1.8-4.5,1.8c-1.8,0-3.4-0.6-4.5-1.8s-1.8-2.8-1.8-4.5c0-1.7,0.7-3.4,1.8-4.5
		c1.2-1.2,2.8-1.8,4.5-1.8c1.7,0,3.4,0.7,4.5,1.8C40.5,25.8,41.1,27.4,41.1,29.2z M41.2,35.9l4.2,7L42,42.8l-1.3,2.6l-4.3-7.2
		C38.2,37.9,39.8,37.1,41.2,35.9L41.2,35.9z M21.2,21c0-1-0.7-1.6-1.6-1.6H10c-1,0-1.6,0.7-1.6,1.6c0,1,0.7,1.6,1.6,1.6h9.7
		C20.6,22.6,21.2,21.9,21.2,21z"/>
</g>
</svg>
