<?xml version="1.0" encoding="UTF-8"?>
<svg version="1.1" viewBox="0 0 209.37488 241.70111" xmlns="http://www.w3.org/2000/svg">
 <defs>
  <filter id="a">
   <feGaussianBlur stdDeviation="12.86803"/>
  </filter>
 </defs>
 <text x="202.39943" y="461.06649" font-family="Sans" font-size="40"/>
 <g transform="matrix(.28604 0 0 .28604 35.005 61.102)">
  <path d="m-80.549-173.3c-0.87784 0-1.588 0.01929-1.588 0.04063v764.19c0 0.05347 0.71019 0.12231 1.588 0.12231h648.32c0.87769 0 1.5879-0.06897 1.5879-0.12231v-764.19c0-0.02167-0.7102-0.04063-1.5879-0.04063h-648.32z" fill="#1c241f" filter="url(#a)"/>
  <path d="m-73.487-58.118h613.19c0.83026 0 1.4987 0.0405 1.4987 0.09079v519.53c0 0.05029-0.66846 0.09082-1.4987 0.09082h-613.19c-0.83029 0-1.4987-0.04053-1.4987-0.09082v-519.53c0-0.05029 0.66844-0.09079 1.4987-0.09079z" fill="#fff"/>
  <path d="m-73.487-170.4h613.19c0.83026 0 1.4987 0.01 1.4987 0.02119v121.4c0 0.0123-0.66846 0.02119-1.4987 0.02119h-613.19c-0.83029 0-1.4987-0.01-1.4987-0.02119v-121.4c0-0.0123 0.66844-0.02119 1.4987-0.02119z" fill="#d40000"/>
  <path d="m-74.597 461.62h613.19c0.83032 0 1.4987 0.01001 1.4987 0.02118v121.4c0 0.01233-0.6684 0.02124-1.4987 0.02124h-613.19c-0.8303 0-1.4987-0.01001-1.4987-0.02124v-121.4c0-0.01227 0.66842-0.02118 1.4987-0.02118z" fill="#d40000"/>
  <g transform="matrix(1.344 0 0 1.13 -350.24 1330.8)" fill="#fff" font-family="Sans" font-size="22.325">
   <path d="m283.6-691.47v-39.622c0-1.8217-0.48221-3.1076-1.4467-3.8578-0.91086-0.75-2.6522-1.259-5.224-1.527v-2.0093h24.513c9.2692 6.1e-5 16.556 2.3575 21.86 7.0725 5.3043 4.7151 7.9565 11.225 7.9566 19.53s-2.6522 15.002-7.9566 20.092-12.297 7.6351-20.976 7.6351h-25.397v-2.0093c2.3039-0.05359 3.9917-0.50903 5.0633-1.3663s1.6074-2.17 1.6074-3.9381m33.675-19.208c-6.1e-5 -4.715-0.48227-8.787-1.4467-12.216s-2.2504-6.0276-3.8578-7.7958-3.2952-3.054-5.0633-3.8578c-1.7146-0.80359-3.5631-1.2054-5.5455-1.2056-3.1612 1.2e-4 -4.7418 0.93774-4.7418 2.813v41.31c-3.1e-5 1.8217 0.32144 3.054 0.96445 3.697s1.8752 0.96442 3.697 0.96442c10.662 0 15.993-7.903 15.994-23.709"/>
   <path d="m354.06-722.17c5.1972 0 9.5104 1.8753 12.939 5.6258 3.4291 3.697 5.1436 8.3584 5.1436 13.984-3.1e-5 5.5723-1.7146 10.234-5.1436 13.984-3.4291 3.697-7.7423 5.5455-12.939 5.5455-5.2508 0-9.5908-1.8485-13.02-5.5455-3.4291-3.7506-5.1436-8.4924-5.1436-14.225 0-5.4651 1.7413-10.046 5.224-13.743 3.5362-3.7506 7.8494-5.6258 12.939-5.6258m0.08041 2.4915c-2.4647 0-4.1524 1.2859-5.0633 3.8577s-1.3663 7.394-1.3663 14.467c-3.1e-5 5.8938 0.45541 10.019 1.3663 12.377 0.96442 2.3039 2.6254 3.4559 4.9829 3.4559s3.9917-1.2055 4.9025-3.6166c0.91083-2.4647 1.3663-6.7778 1.3663-12.94-3.1e-5 -6.5903-0.45548-11.171-1.3663-13.743s-2.5182-3.8577-4.8221-3.8577"/>
   <path d="m407.18-692.91 1.4467 1.4467c-2.3575 3.0004-4.7418 5.1705-7.1529 6.51-2.3575 1.2859-5.0901 1.9288-8.1977 1.9288-4.9829 0-9.1086-1.7949-12.377-5.3848-3.2148-3.5898-4.8222-8.144-4.8222-13.663 0-5.7866 1.7949-10.582 5.3848-14.386s8.1173-5.7062 13.582-5.7062c3.5363 0 6.4831 0.8573 8.8406 2.5718 2.4111 1.661 3.6166 3.7506 3.6166 6.2688-6.1e-5 1.5538-0.48224 2.7862-1.4467 3.697s-2.304 1.3663-4.0185 1.3663c-2.9469 6.1e-5 -4.4471-1.9288-4.5007-5.7866 0-2.2504-0.13397-3.6166-0.40186-4.0989-0.53583-1.0179-1.527-1.527-2.9736-1.527-2.0897 0-3.7506 1.2056-4.9829 3.6166-1.1788 2.3575-1.7682 5.5991-1.7681 9.7247-6.1e-5 5.4651 1.0179 9.8319 3.054 13.1 2.0896 3.2148 4.8757 4.8221 8.3584 4.8221 1.661 0 3.0808-0.32141 4.2596-0.96442 1.2323-0.69653 2.5986-1.8753 4.0988-3.5363"/>
   <path d="m434.91-683.11v-5.2241c-2.3575 2.0361-4.3668 3.4291-6.0277 4.1793s-3.5363 1.1251-5.6258 1.1251c-3.322 0-5.9474-0.99121-7.8762-2.9736-1.8753-1.9825-2.8129-4.7418-2.8129-8.2781v-20.253c0-1.661-0.24115-2.7861-0.72333-3.3756s-1.5538-1.0447-3.2148-1.3663v-1.9289h15.109v27.245c0 2.0361 0.32147 3.5095 0.96448 4.4204 0.69647 0.85724 1.8752 1.2859 3.5363 1.2859 2.036 0 4.2327-1.1787 6.5903-3.5363v-22.745c0-1.7145-0.34827-2.8932-1.0448-3.5363-0.64301-0.64288-1.9557-1.0447-3.9381-1.2056v-1.9289h16.154v28.933c-6.1e-5 1.7145 0.29462 2.9201 0.88403 3.6166 0.64294 0.64294 1.8484 0.99121 3.6166 1.0448v1.8485l-4.9829 0.56262c-4.4471 0.48218-7.9834 1.1787-10.609 2.0896"/>
   <path d="m474.93-716.78c-1.4467 0-2.9469 0.61621-4.5007 1.8485-1.5002 1.2323-2.2503 2.1699-2.2503 2.8129v21.459c0 1.5538 0.26788 2.6522 0.80371 3.2951s1.5002 1.0717 2.8933 1.286v1.9289h-19.289v-1.9289c1.7681-0.32147 2.9468-0.77692 3.5363-1.3663 0.58935-0.64294 0.88403-1.7949 0.88403-3.4559v-23.629c0-1.661-0.29468-2.8129-0.88403-3.4559s-1.7681-1.0715-3.5363-1.2859v-1.9289h15.351v6.0277c2.9468-4.6614 6.885-6.9921 11.814-6.9921 2.5182 0 4.5543 0.53583 6.1081 1.6074s2.9468 2.8665 4.1792 5.3848c2.0896-2.5718 3.9916-4.3667 5.7062-5.3848 1.7681-1.0715 3.8041-1.6074 6.1081-1.6074 3.3219 0 5.9473 1.0448 7.8762 3.1344 1.9824 2.036 2.9737 4.7686 2.9737 8.1977v20.173c0 1.7145 0.26782 2.8933 0.80371 3.5363 0.58935 0.58942 1.6609 0.93768 3.2147 1.0448v1.9289h-19.128v-1.9289c1.5538-0.10712 2.5986-0.48224 3.1344-1.1252s0.80365-1.7949 0.80371-3.4559v-19.449c-6.1e-5 -2.3575-0.34833-4.0453-1.0448-5.0633-0.64301-1.0716-1.7146-1.6074-3.2148-1.6074-1.3931 0-2.8934 0.64294-4.5007 1.9288-1.5539 1.2324-2.3308 2.1432-2.3308 2.7325v21.459c0 1.5538 0.26788 2.679 0.80371 3.3756 0.58935 0.64294 1.5806 1.0448 2.9737 1.2055v1.9289h-18.807v-1.9289c1.5002-0.10712 2.5182-0.48224 3.0541-1.1252s0.80365-1.7949 0.80371-3.4559v-19.449c-6.1e-5 -2.4111-0.34833-4.1256-1.0448-5.1437-0.64301-1.0179-1.7414-1.527-3.2952-1.527"/>
   <path d="m531.44-703.84c0.05359 1.4467 0.16065 2.7594 0.32141 3.9381 0.16077 1.1252 0.42871 2.4379 0.80371 3.9381 0.42859 1.4467 0.96448 2.6522 1.6074 3.6166 0.69653 0.96448 1.6074 1.7949 2.7325 2.4915 1.1787 0.69653 2.545 1.0449 4.0989 1.0448 1.7145 6.1e-5 3.2683-0.40179 4.6614-1.2055s2.8933-2.1967 4.5007-4.1792l1.9288 1.1252c-2.6254 3.7506-5.0901 6.376-7.3939 7.8762-2.2504 1.4467-5.0098 2.1699-8.2781 2.1699-4.9829 0-9.0015-1.7681-12.055-5.3043-3.0005-3.5898-4.5007-8.3049-4.5007-14.145 0-5.8937 1.527-10.636 4.5811-14.225 3.1077-3.6434 7.1797-5.4651 12.216-5.4651 9.1621 0 14.172 6.1081 15.029 18.324h-20.253m10.368-4.1792c-0.05359-1.7145-0.10718-3.0272-0.16077-3.9381s-0.1875-1.9288-0.40186-3.0541c-0.21435-1.1787-0.50903-2.036-0.88403-2.5718-0.32153-0.58935-0.80371-1.0716-1.4467-1.4467-0.58948-0.42859-1.3395-0.64294-2.2504-0.64294-1.9824 0-3.4023 0.93762-4.2596 2.8129-0.80371 1.8754-1.259 5.2241-1.3662 10.046h10.77v-1.2056"/>
   <path d="m575.48-716.78c-1.5002 0-3.0273 0.64294-4.5811 1.9288-1.5538 1.2324-2.3308 2.1432-2.3308 2.7325v21.459c0 1.5002 0.26794 2.5986 0.80371 3.2951 0.58935 0.64301 1.6342 1.0717 3.1344 1.286v1.9289h-19.369v-1.9289c1.8218-0.37506 2.9736-0.85724 3.4559-1.4467 0.53577-0.58935 0.80371-1.7145 0.80371-3.3756v-23.629c0-1.661-0.26794-2.7861-0.80371-3.3755-0.53577-0.64294-1.6877-1.0983-3.4559-1.3663v-1.9289h15.351v6.0277c2.9469-4.6614 6.7778-6.9921 11.493-6.9921 3.322 0 5.9474 1.0448 7.8762 3.1344 1.9824 2.036 2.9736 4.7686 2.9738 8.1977v20.173c-1.2e-4 1.7145 0.26782 2.8933 0.80359 3.5363 0.53577 0.58942 1.5806 0.93768 3.1345 1.0448v1.9289h-18.887v-1.9289c1.3395-0.16071 2.3038-0.58935 2.8933-1.286s0.88403-1.7949 0.88403-3.2951v-19.449c0-4.4471-1.3931-6.6706-4.1792-6.6706"/>
   <path d="m620.7-721.2v3.5363h-7.5547v24.191c0 1.6074 0.24109 2.7861 0.72327 3.5363 0.48218 0.69653 1.2859 1.0448 2.4111 1.0448 1.6074 0 3.1344-1.3931 4.5811-4.1792l2.0093 0.88403c-1.661 3.2684-3.4023 5.5991-5.224 6.9922-1.7682 1.3395-3.9917 2.0092-6.6708 2.0092-2.7861 0-4.9829-0.75012-6.5902-2.2503s-2.4111-3.5631-2.4111-6.1885v-26.04h-4.1792v-2.17c2.6254-2.1967 4.8757-4.3667 6.751-6.5099 1.929-2.1432 4.1257-4.9561 6.5903-8.4388h2.0093v13.582h7.5547"/>
  </g>
  <g transform="matrix(.24239 0 0 .24239 28.202 338.5)" fill="#a40" font-family="Sans" font-size="40" stroke="#fff">
   <path d="m97.983-1771.1c9.0573-5.4775 22.224-24.317 5.5461-30.397-70.13-14.013-282.36 84.092-299.51 97.27-24.739 14.846-45.415 41.549-30.505 48.635 11.204 8.686 38.742 17.345 65.17-19.758 15.328-18.646 57.752-86.174 62.397-106.39 14.114-37.579 48.481-187.84 52.691-209.74 2.6907-15.8 5.6889-51.205-9.7063-63.833-7.6852-4.6599-14.834 2.887-19.412 12.159-17.358 53.132 25.823 123.24 33.279 133.75 14.284 24.977 68.947 104.43 90.129 130.71 15.448 15.114 38.538 19.321 49.918 7.599z" fill="none" stroke="#fff" stroke-width="19.349"/>
  </g>
  <g fill="#fff" font-family="Sans" font-size="30.538">
   <path d="m155.5-66.831h32.431v-5.3869l-7.8054-0.54968-1.649-1.759v-19.788c3.2981 0.21986 5.8266 0.32979 7.4756 0.32979 18.469 0 28.803-9.2346 28.803-24.406 0-15.831-9.6744-22.207-30.012-22.207h-29.683v5.3868l7.2558 0.54968 1.649 1.5391v58.596l-1.9788 1.759-6.4862 0.54968v5.3869m22.977-33.75v-33.64h5.7166c10.004 0 15.391 5.8266 15.391 16.27 0 11.653-5.7167 17.59-17.15 17.59-1.2093 0-2.5285-0.10992-3.9577-0.21986"/>
   <path d="m252.23-140.6h-32.101v5.3868l6.7061 0.54968 1.759 1.759v58.376l-1.759 1.759-6.7061 0.54968v5.3869h32.101c10.994 0 19.239-1.649 26.055-6.926 8.9048-6.816 13.522-16.93 13.522-29.903 0-23.086-14.072-36.938-39.577-36.938m-9.1247 6.1564h6.3763c17.48 0 25.945 10.004 25.945 30.672s-8.4651 30.782-25.945 30.782h-6.3763v-61.454"/>
   <path d="m299.04-66.831h32.431v-5.3869l-7.6955-0.54968-1.8689-1.759v-25.615h14.731l1.5391 1.4292 1.0994 8.0253h6.4862v-25.615h-6.4862l-1.0994 8.0253-1.5391 1.4292h-14.731v-27.374h21.218l1.4292 1.4292 1.649 10.664h7.5855v-18.469h-55.188v5.3868l7.0359 0.54968 1.759 1.5391v58.596l-1.759 1.759-6.5961 0.54968v5.3869"/>
  </g>
  <g fill="#d40000" font-family="Sans" font-size="41.666">
   <path d="m10.492 213.17h89.356v-14.842l-21.506-1.5145-4.5435-4.8464v-54.522c9.0871 0.6058 16.054 0.90869 20.597 0.90869 50.888 0 79.361-25.444 79.361-67.244 0-43.618-26.656-61.186-82.692-61.186h-81.784v14.842l19.992 1.5145 4.5435 4.2406v161.45l-5.4523 4.8465-17.871 1.5145v14.842m63.307-92.991v-92.688h15.751c27.564 0 42.406 16.054 42.406 44.83 0 32.108-15.751 48.464-47.253 48.464-3.3319 0-6.9668-0.30292-10.904-0.6058" fill="#d40000"/>
  </g>
  <g transform="matrix(1 0 0 .85449 23.322 107.72)" fill="#d40000" stroke="#a40" stroke-width="1.2324">
   <path d="m213.08-1.9175h245.45c0.37067 0 0.66907 0.01651 0.66907 0.03699v45.7c0 0.02048-0.2984 0.0369-0.66907 0.0369h-245.45c-0.37067 0-0.66907-0.01651-0.66907-0.0369v-45.7c0-0.02048 0.2984-0.03699 0.66907-0.03699z"/>
   <path d="m213.08 69.511h245.45c0.37067 0 0.66907 0.01651 0.66907 0.03699v45.7c0 0.02048-0.2984 0.0369-0.66907 0.0369h-245.45c-0.37067 0-0.66907-0.01651-0.66907-0.0369v-45.7c0-0.02048 0.2984-0.03699 0.66907-0.03699z"/>
   <path d="m213.08-75.478h245.45c0.37067 0 0.66907 0.01651 0.66907 0.03702v45.7c0 0.02048-0.2984 0.0369-0.66907 0.0369h-245.45c-0.37067 0-0.66907-0.01651-0.66907-0.0369v-45.7c0-0.02051 0.2984-0.03702 0.66907-0.03702z"/>
  </g>
  <g transform="matrix(1 0 0 .88293 0 84.929)" fill="#d40000" stroke="#a40" stroke-width="1.791">
   <path d="m-31.893 192.21h518.43c0.78296 0 1.4132 0.01648 1.4132 0.03699v45.7c0 0.02051-0.63025 0.03693-1.4132 0.03693h-518.43c-0.78291 0-1.4132-0.01648-1.4132-0.03693v-45.7c0-0.02051 0.63028-0.03699 1.4132-0.03699z"/>
   <path d="m-31.893 266.5h518.43c0.78296 0 1.4132 0.01648 1.4132 0.03699v45.7c0 0.02051-0.63025 0.03693-1.4132 0.03693h-518.43c-0.78291 0-1.4132-0.01648-1.4132-0.03693v-45.7c0-0.02051 0.63028-0.03699 1.4132-0.03699z"/>
   <path d="m-31.893 340.79h518.43c0.78296 0 1.4132 0.01648 1.4132 0.03699v45.7c0 0.02051-0.63025 0.03693-1.4132 0.03693h-518.43c-0.78291 0-1.4132-0.01648-1.4132-0.03693v-45.7c0-0.02051 0.63028-0.03699 1.4132-0.03699z"/>
  </g>
 </g>
</svg>
