<?xml version="1.0" standalone="no"?><!DOCTYPE svg PUBLIC "-//W3C//DTD SVG 1.1//EN" "http://www.w3.org/Graphics/SVG/1.1/DTD/svg11.dtd"><svg t="1583976512788" class="icon" viewBox="0 0 1024 1024" version="1.1" xmlns="http://www.w3.org/2000/svg" p-id="5062" width="20" height="20" xmlns:xlink="http://www.w3.org/1999/xlink"><defs><style type="text/css"></style></defs><path d="M914.285714 708.534857q0 15.433143-5.705143 40.301714t-11.995429 39.131429q-11.995429 28.598857-69.705143 60.562286-53.686857 29.110857-106.276571 29.110857-15.433143 0-29.988571-1.974857t-32.841143-7.168-27.136-8.265143-31.744-11.702857-28.013714-10.313143q-56.027429-19.968-99.986286-47.396571-73.142857-45.129143-151.113143-123.172571t-123.172571-151.113143q-27.428571-44.032-47.396571-99.986286-1.682286-5.12-10.313143-28.013714t-11.702857-31.744-8.265143-27.136-7.168-32.841143-1.974857-29.988571q0-52.589714 29.110857-106.276571 32.036571-57.709714 60.562286-69.705143 14.262857-6.290286 39.131429-11.995429t40.301714-5.705143q7.972571 0 11.995429 1.682286 10.313143 3.437714 30.281143 43.446857 6.290286 10.825143 17.115429 30.866286t19.968 36.278857 17.700571 30.573714q1.682286 2.267429 10.020571 14.262857t12.288 20.260571 4.022857 16.310857q0 11.410286-16.310857 28.598857t-35.401143 31.451429-35.401143 30.281143-16.310857 26.258286q0 5.12 2.852571 12.873143t4.827429 11.702857 7.972571 13.677714 6.582857 10.825143q43.446857 78.262857 99.401143 134.290286t134.290286 99.401143q1.170286 0.585143 10.825143 6.582857t13.677714 7.972571 11.702857 4.827429 12.873143 2.852571q10.313143 0 26.258286-16.310857t30.281143-35.401143 31.451429-35.401143 28.598857-16.310857q7.972571 0 16.310857 4.022857t20.260571 12.288 14.262857 10.020571q14.262857 8.557714 30.573714 17.700571t36.278857 19.968 30.866286 17.115429q40.009143 19.968 43.446857 30.281143 1.682286 4.022857 1.682286 11.995429z" p-id="5063" fill="#ff7700"></path></svg>