<?xml version="1.0" standalone="no"?><!DOCTYPE svg PUBLIC "-//W3C//DTD SVG 1.1//EN" "http://www.w3.org/Graphics/SVG/1.1/DTD/svg11.dtd"><svg t="1584452807116" class="icon" viewBox="0 0 1024 1024" version="1.1" xmlns="http://www.w3.org/2000/svg" p-id="4180" width="16" height="16" xmlns:xlink="http://www.w3.org/1999/xlink"><defs><style type="text/css"></style></defs><path d="M154.297571 460.588809q-4.565143-10.858214-4.565143-29.716095 0-11.43419 6.293071-28.0095t13.716762-25.705596q-0.575976-12.56481 4.287821-30.292071t12.863464-24.574976q0-79.420691 52.861797-164.857131t124.282822-119.717678q79.420691-37.715762 185.144286-37.715762 76.0075 0 151.993667 31.422691 28.0095 12.010166 51.432524 27.433524t40.574309 31.998667 31.422691 38.846381 23.999 42.280905 18.580559 48.275322 14.57006 51.133869 12.56481 55.997667l0.575976 2.858548q31.422691 47.422024 31.422691 85.713762 0 7.999667-5.141119 22.847048t-5.141119 21.716428q0 0.575976 0.853298 2.00525t2.00525 2.858548 1.151952 2.00525q44.008833 65.149285 68.861131 122.576226t24.852298 119.141702q0 24.574976-11.135536 57.149619t-31.721345 32.574643q-5.141119 0-11.135536-4.287821t-10.858214-10.004916-10.858214-14.847381-9.151619-15.146036-7.722345-14.847381-5.141119-10.004916q-0.575976-0.575976-1.706596-0.575976l-2.858548 2.282572q-33.705262 87.996333-75.431524 127.418691 11.43419 11.43419 35.134536 21.99375t39.422357 23.721678 20.287155 37.139786q-1.151952 2.282572-2.282572 9.151619t-4.0105 10.282238q-36.56381 55.421691-172.558143 55.421691-30.292071 0-63.144036-5.141119t-55.997667-11.43419-59.709512-17.151285q-8.575643-2.858548-13.140786-4.0105-7.999667-2.282572-26.281572-2.581226t-22.847048-0.853298q-23.423024 25.705596-72.850298 37.139786t-96.273322 11.43419q-20.009833 0-39.422357-0.853298t-53.139119-5.141119-57.704262-11.711512-42.579559-22.847048-18.580559-36.56381q0-22.847048 5.717095-34.003917t23.423024-27.710845q6.293071-1.151952 23.145702-7.423691t28.286821-6.847715q2.282572 0 7.999667-1.151952 1.151952-1.151952 1.151952-2.282572l-1.151952-1.706596q-27.433524-6.293071-61.714762-60.285488t-41.704929-89.425607l-2.858548-1.706596q-2.282572 0-6.847715 11.43419-10.282238 23.423024-31.145369 42.579559t-44.286155 21.417774l-0.575976 0q-2.282572 0-3.434524-2.581226t-2.858548-3.135869q-13.140786-30.846715-13.140786-57.149619 0-157.134786 143.994-266.271572z" p-id="4181" fill="#ff7700"></path></svg>