<?xml version="1.0" standalone="no"?><!DOCTYPE svg PUBLIC "-//W3C//DTD SVG 1.1//EN" "http://www.w3.org/Graphics/SVG/1.1/DTD/svg11.dtd"><svg t="1758094513874" class="icon" viewBox="0 0 1024 1024" version="1.1" xmlns="http://www.w3.org/2000/svg" p-id="12833" xmlns:xlink="http://www.w3.org/1999/xlink" width="200" height="200"><path d="M0.000279 511.692861A511.609096 511.609096 0 1 0 511.609376 0.725964a511.329879 511.329879 0 0 0-511.609097 510.966897z m0 0" fill="#606266" p-id="12834"></path><path d="M530.568202 224.294923a27.921688 27.921688 0 0 0-38.671538 0l-164.737962 159.656214a26.441839 26.441839 0 0 0 0 37.945575 27.921688 27.921688 0 0 0 38.755304 0l118.499645-114.953592v230.465616a27.61455 27.61455 0 0 0 54.949883 0v-229.237061l117.271091 113.752958a27.921688 27.921688 0 0 0 38.839069 0 26.385996 26.385996 0 0 0 8.041446-18.930904 25.855483 25.855483 0 0 0-8.236898-18.930905z m-183.305884-35.097562h329.475923a26.832743 26.832743 0 1 0 0-53.637564h-329.475923a26.832743 26.832743 0 1 0 0 53.637564zM282.651531 885.117522l-3.769428-16.753013h26.1347c8.236898 0 9.297922-3.685663 9.297922-10.526477V689.94492h-39.090363v-17.53482h87.339041v17.53482h-30.071658v173.114468a18.875061 18.875061 0 0 1-5.249278 16.222501 19.768555 19.768555 0 0 1-16.390031 5.584338z m159.488684-138.100671v43.976659a101.411572 101.411572 0 0 1-20.047772 62.377052 127.01576 127.01576 0 0 1-60.143317 34.008617l-9.856356-15.077712a112.328952 112.328952 0 0 0 56.038828-30.322954 86.305939 86.305939 0 0 0 15.915363-50.985003v-43.976659z m56.038828-74.132082v17.53482h-55.312864a153.988111 153.988111 0 0 1-3.210994 25.939248h50.259039v116.880188H472.016421v-100.769373h-75.891149v100.936903h-17.897802v-117.4107h43.864973c1.619458-8.376507 2.512952-17.53482 3.406446-25.939248h-53.693407v-17.53482z m2.14997 202.59977l-13.06735 13.151116a306.803512 306.803512 0 0 0-44.925996-42.943557l12.341386-11.392049a339.527731 339.527731 0 0 1 45.65196 41.18449z m75.723619-121.459344h26.330153a270.2261 270.2261 0 0 0 17.897802-43.474069l16.753013 5.77979a257.968479 257.968479 0 0 1-17.897802 37.666357h30.239188v17.534821h-125.284616v-17.534821h33.841087a225.495555 225.495555 0 0 0-16.110815-35.041719l16.753013-5.947319a249.899111 249.899111 0 0 1 17.534821 41.01696z m4.104489-67.012052a265.535257 265.535257 0 0 0-9.297923-22.337351l17.897803-3.155151c2.792169 7.343404 5.360964 15.943284 8.236898 25.408737h51.180454v17.53482h-118.667175v-17.53482z m58.88684 200.477722h-17.897802v-14.714729h-64.080275v13.960844h-17.897802v-93.062988h99.875879z m-17.897802-30.713857v-47.13181h-64.080275v45.568196z m123.162568-184.283143v13.151115q-10.694007 36.772864-25.12952 72.373016a106.102416 106.102416 0 0 1 28.647652 57.127775 41.631237 41.631237 0 0 1-9.856356 31.886568 68.240606 68.240606 0 0 1-41.35202 9.10247l-6.086928-18.763374h17.897802a24.878224 24.878224 0 0 0 17.897802-5.081747 31.607351 31.607351 0 0 0 3.936958-17.534821 104.399193 104.399193 0 0 0-29.876206-57.127774 655.824617 655.824617 0 0 0 24.710694-70.11136h-45.456509v200.142663h-17.897802v-215.220375z m0 0" fill="#15ae2f" p-id="12835"></path></svg>